<svg version="1.1" xmlns="http://www.w3.org/2000/svg" xmlns:xlink="http://www.w3.org/1999/xlink" width="500" height="490"><defs/><g><rect fill="#262a33" stroke="none" x="0" y="16" width="128" height="48"/><text fill="#888" stroke="none" font-family="sans-serif" font-size="10px" font-style="normal" font-weight="normal" text-decoration="normal" x="0" y="12" text-anchor="start" dominant-baseline="alphabetic">superuser</text><rect fill="#43ffaf" stroke="none" x="8" y="24" width="32" height="32"/><rect fill="#526777" stroke="none" x="48" y="24" width="32" height="32"/><rect fill="#e5f7ef" stroke="none" x="88" y="24" width="32" height="32"/><rect fill="#0f0d0d" stroke="none" x="136" y="16" width="128" height="48"/><text fill="#888" stroke="none" font-family="sans-serif" font-size="10px" font-style="normal" font-weight="normal" text-decoration="normal" x="136" y="12" text-anchor="start" dominant-baseline="alphabetic">bold</text><rect fill="#3d8e91" stroke="none" x="144" y="24" width="32" height="32"/><rect fill="#f0624b" stroke="none" x="184" y="24" width="32" height="32"/><rect fill="#ffffff" stroke="none" x="224" y="24" width="32" height="32"/><rect fill="#181d26" stroke="none" x="272" y="16" width="128" height="48"/><text fill="#888" stroke="none" font-family="sans-serif" font-size="10px" font-style="normal" font-weight="normal" text-decoration="normal" x="272" y="12" text-anchor="start" dominant-baseline="alphabetic">azure</text><rect fill="#508aaa" stroke="none" x="280" y="24" width="32" height="32"/><rect fill="#64aeb3" stroke="none" x="320" y="24" width="32" height="32"/><rect fill="#ffffff" stroke="none" x="360" y="24" width="32" height="32"/><rect fill="#D1C4E9" stroke="none" x="0" y="86" width="128" height="48"/><text fill="#888" stroke="none" font-family="sans-serif" font-size="10px" font-style="normal" font-weight="normal" text-decoration="normal" x="0" y="82" text-anchor="start" dominant-baseline="alphabetic">taro</text><rect fill="#9575CD" stroke="none" x="8" y="94" width="32" height="32"/><rect fill="#673AB7" stroke="none" x="48" y="94" width="32" height="32"/><rect fill="#311B92" stroke="none" x="88" y="94" width="32" height="32"/><rect fill="#1E1E1E" stroke="none" x="136" y="86" width="128" height="48"/><text fill="#888" stroke="none" font-family="sans-serif" font-size="10px" font-style="normal" font-weight="normal" text-decoration="normal" x="136" y="82" text-anchor="start" dominant-baseline="alphabetic">vscode</text><rect fill="#569CD6" stroke="none" x="144" y="94" width="32" height="32"/><rect fill="#9CDCFE" stroke="none" x="184" y="94" width="32" height="32"/><rect fill="#D4D4D4" stroke="none" x="224" y="94" width="32" height="32"/><rect fill="#0C0C0C" stroke="none" x="272" y="86" width="128" height="48"/><text fill="#888" stroke="none" font-family="sans-serif" font-size="10px" font-style="normal" font-weight="normal" text-decoration="normal" x="272" y="82" text-anchor="start" dominant-baseline="alphabetic">matrix</text><rect fill="#99FF99" stroke="none" x="280" y="94" width="32" height="32"/><rect fill="#66FF66" stroke="none" x="320" y="94" width="32" height="32"/><rect fill="#33FF33" stroke="none" x="360" y="94" width="32" height="32"/><rect fill="#262626" stroke="none" x="0" y="156" width="128" height="48"/><text fill="#888" stroke="none" font-family="sans-serif" font-size="10px" font-style="normal" font-weight="normal" text-decoration="normal" x="0" y="152" text-anchor="start" dominant-baseline="alphabetic">dualshot</text><rect fill="#60A5FA" stroke="none" x="8" y="164" width="32" height="32"/><rect fill="#34D399" stroke="none" x="48" y="164" width="32" height="32"/><rect fill="#F5F5F5" stroke="none" x="88" y="164" width="32" height="32"/><rect fill="#000B1E" stroke="none" x="136" y="156" width="128" height="48"/><text fill="#888" stroke="none" font-family="sans-serif" font-size="10px" font-style="normal" font-weight="normal" text-decoration="normal" x="136" y="152" text-anchor="start" dominant-baseline="alphabetic">cyberspace</text><rect fill="#FFCB6B" stroke="none" x="144" y="164" width="32" height="32"/><rect fill="#82AAFF" stroke="none" x="184" y="164" width="32" height="32"/><rect fill="#A9B7C6" stroke="none" x="224" y="164" width="32" height="32"/><rect fill="#2A2734" stroke="none" x="272" y="156" width="128" height="48"/><text fill="#888" stroke="none" font-family="sans-serif" font-size="10px" font-style="normal" font-weight="normal" text-decoration="normal" x="272" y="152" text-anchor="start" dominant-baseline="alphabetic">bento</text><rect fill="#FAC863" stroke="none" x="280" y="164" width="32" height="32"/><rect fill="#C594C5" stroke="none" x="320" y="164" width="32" height="32"/><rect fill="#EEEBE3" stroke="none" x="360" y="164" width="32" height="32"/><rect fill="#1A1A1A" stroke="none" x="0" y="226" width="128" height="48"/><text fill="#888" stroke="none" font-family="sans-serif" font-size="10px" font-style="normal" font-weight="normal" text-decoration="normal" x="0" y="222" text-anchor="start" dominant-baseline="alphabetic">orwell</text><rect fill="#D8D8D8" stroke="none" x="8" y="234" width="32" height="32"/><rect fill="#E74C3C" stroke="none" x="48" y="234" width="32" height="32"/><rect fill="#F5F5F5" stroke="none" x="88" y="234" width="32" height="32"/><rect fill="#100E23" stroke="none" x="136" y="226" width="128" height="48"/><text fill="#888" stroke="none" font-family="sans-serif" font-size="10px" font-style="normal" font-weight="normal" text-decoration="normal" x="136" y="222" text-anchor="start" dominant-baseline="alphabetic">royal</text><rect fill="#EE64AC" stroke="none" x="144" y="234" width="32" height="32"/><rect fill="#A37ACC" stroke="none" x="184" y="234" width="32" height="32"/><rect fill="#D8DDE8" stroke="none" x="224" y="234" width="32" height="32"/><rect fill="#011627" stroke="none" x="272" y="226" width="128" height="48"/><text fill="#888" stroke="none" font-family="sans-serif" font-size="10px" font-style="normal" font-weight="normal" text-decoration="normal" x="272" y="222" text-anchor="start" dominant-baseline="alphabetic">pine</text><rect fill="#82AAFF" stroke="none" x="280" y="234" width="32" height="32"/><rect fill="#22DA6E" stroke="none" x="320" y="234" width="32" height="32"/><rect fill="#D6DEEB" stroke="none" x="360" y="234" width="32" height="32"/><rect fill="#132738" stroke="none" x="0" y="296" width="128" height="48"/><text fill="#888" stroke="none" font-family="sans-serif" font-size="10px" font-style="normal" font-weight="normal" text-decoration="normal" x="0" y="292" text-anchor="start" dominant-baseline="alphabetic">alien</text><rect fill="#10A778" stroke="none" x="8" y="304" width="32" height="32"/><rect fill="#6FC2EF" stroke="none" x="48" y="304" width="32" height="32"/><rect fill="#CDD2E9" stroke="none" x="88" y="304" width="32" height="32"/><rect fill="#282A36" stroke="none" x="136" y="296" width="128" height="48"/><text fill="#888" stroke="none" font-family="sans-serif" font-size="10px" font-style="normal" font-weight="normal" text-decoration="normal" x="136" y="292" text-anchor="start" dominant-baseline="alphabetic">anarchy</text><rect fill="#FF5555" stroke="none" x="144" y="304" width="32" height="32"/><rect fill="#FF79C6" stroke="none" x="184" y="304" width="32" height="32"/><rect fill="#F8F8F2" stroke="none" x="224" y="304" width="32" height="32"/><rect fill="#2E3440" stroke="none" x="272" y="296" width="128" height="48"/><text fill="#888" stroke="none" font-family="sans-serif" font-size="10px" font-style="normal" font-weight="normal" text-decoration="normal" x="272" y="292" text-anchor="start" dominant-baseline="alphabetic">alpine</text><rect fill="#88C0D0" stroke="none" x="280" y="304" width="32" height="32"/><rect fill="#81A1C1" stroke="none" x="320" y="304" width="32" height="32"/><rect fill="#D8DEE9" stroke="none" x="360" y="304" width="32" height="32"/><rect fill="#14191F" stroke="none" x="0" y="366" width="128" height="48"/><text fill="#888" stroke="none" font-family="sans-serif" font-size="10px" font-style="normal" font-weight="normal" text-decoration="normal" x="0" y="362" text-anchor="start" dominant-baseline="alphabetic">carbon</text><rect fill="#FF6059" stroke="none" x="8" y="374" width="32" height="32"/><rect fill="#FEB144" stroke="none" x="48" y="374" width="32" height="32"/><rect fill="#D9D7CE" stroke="none" x="88" y="374" width="32" height="32"/><rect fill="#282828" stroke="none" x="136" y="366" width="128" height="48"/><text fill="#888" stroke="none" font-family="sans-serif" font-size="10px" font-style="normal" font-weight="normal" text-decoration="normal" x="136" y="362" text-anchor="start" dominant-baseline="alphabetic">halloween</text><rect fill="#FB4934" stroke="none" x="144" y="374" width="32" height="32"/><rect fill="#B8BB26" stroke="none" x="184" y="374" width="32" height="32"/><rect fill="#EBDBB2" stroke="none" x="224" y="374" width="32" height="32"/><rect fill="#fff25e" stroke="none" x="272" y="366" width="128" height="48"/><text fill="#888" stroke="none" font-family="sans-serif" font-size="10px" font-style="normal" font-weight="normal" text-decoration="normal" x="272" y="362" text-anchor="start" dominant-baseline="alphabetic">cyberpunk</text><rect fill="#ff7a9b" stroke="none" x="280" y="374" width="32" height="32"/><rect fill="#00e2f4" stroke="none" x="320" y="374" width="32" height="32"/><rect fill="#000000" stroke="none" x="360" y="374" width="32" height="32"/><rect fill="#2b213a" stroke="none" x="0" y="436" width="128" height="48"/><text fill="#888" stroke="none" font-family="sans-serif" font-size="10px" font-style="normal" font-weight="normal" text-decoration="normal" x="0" y="432" text-anchor="start" dominant-baseline="alphabetic">synthwave</text><rect fill="#fd25e9" stroke="none" x="8" y="444" width="32" height="32"/><rect fill="#03edf9" stroke="none" x="48" y="444" width="32" height="32"/><rect fill="#f92aad" stroke="none" x="88" y="444" width="32" height="32"/><rect fill="#22092C" stroke="none" x="136" y="436" width="128" height="48"/><text fill="#888" stroke="none" font-family="sans-serif" font-size="10px" font-style="normal" font-weight="normal" text-decoration="normal" x="136" y="432" text-anchor="start" dominant-baseline="alphabetic">abyss</text><rect fill="#F05941" stroke="none" x="144" y="444" width="32" height="32"/><rect fill="#BE3144" stroke="none" x="184" y="444" width="32" height="32"/><rect fill="#efc4d8" stroke="none" x="224" y="444" width="32" height="32"/><rect fill="#ECF4D6" stroke="none" x="272" y="436" width="128" height="48"/><text fill="#888" stroke="none" font-family="sans-serif" font-size="10px" font-style="normal" font-weight="normal" text-decoration="normal" x="272" y="432" text-anchor="start" dominant-baseline="alphabetic">breeze</text><rect fill="#2D9596" stroke="none" x="280" y="444" width="32" height="32"/><rect fill="#9AD0C2" stroke="none" x="320" y="444" width="32" height="32"/><rect fill="#265073" stroke="none" x="360" y="444" width="32" height="32"/></g></svg>