<svg width="500" height="532" viewBox="0 0 500 532" xmlns="http://www.w3.org/2000/svg"><path fill="#888" d="M52.7 18.4L52.7 18.4Q50.7 17.9 49.9 17.0Q49.0 16.2 49.0 15.1L49.0 15.1Q49.0 13.7 50.1 12.8Q51.1 12.0 52.9 12.0L52.9 12.0Q54.0 12.0 54.9 12.4Q55.9 12.9 56.4 13.7Q56.9 14.5 56.9 15.4L56.9 15.4L55.4 15.4Q55.4 14.4 54.7 13.8Q54.0 13.2 52.9 13.2L52.9 13.2Q51.7 13.2 51.1 13.7Q50.5 14.2 50.5 15.0L50.5 15.0Q50.5 15.7 51.1 16.2Q51.7 16.7 53.1 17.1Q54.5 17.5 55.3 18.0Q56.1 18.4 56.5 19.1Q56.9 19.7 56.9 20.6L56.9 20.6Q56.9 22.0 55.8 22.8Q54.7 23.6 52.9 23.6L52.9 23.6Q51.8 23.6 50.7 23.2Q49.7 22.7 49.2 22.0Q48.6 21.2 48.6 20.2L48.6 20.2L50.1 20.2Q50.1 21.2 50.9 21.8Q51.7 22.4 52.9 22.4L52.9 22.4Q54.1 22.4 54.8 21.9Q55.4 21.4 55.4 20.6Q55.4 19.8 54.8 19.3Q54.2 18.9 52.7 18.4ZM63.8 23.5L63.8 22.6Q63.0 23.6 61.3 23.6L61.3 23.6Q60.0 23.6 59.3 22.9Q58.6 22.1 58.6 20.5L58.6 20.5L58.6 15.0L60 15.0L60 20.5Q60 22.4 61.6 22.4L61.6 22.4Q63.2 22.4 63.8 21.2L63.8 21.2L63.8 15.0L65.2 15.0L65.2 23.5L63.8 23.5ZM74.5 19.2L74.5 19.4Q74.5 21.3 73.7 22.5Q72.8 23.6 71.3 23.6L71.3 23.6Q69.7 23.6 68.9 22.7L68.9 22.7L68.9 26.7L67.4 26.7L67.4 15.0L68.7 15.0L68.8 16.0Q69.7 14.9 71.3 14.9L71.3 14.9Q72.8 14.9 73.7 16.0Q74.5 17.2 74.5 19.2L74.5 19.2ZM73.1 19.2L73.1 19.2Q73.1 17.8 72.5 16.9Q71.9 16.1 70.8 16.1L70.8 16.1Q69.5 16.1 68.9 17.3L68.9 17.3L68.9 21.3Q69.5 22.5 70.8 22.5L70.8 22.5Q71.9 22.5 72.5 21.6Q73.1 20.8 73.1 19.2ZM79.9 23.6L79.9 23.6Q78.2 23.6 77.1 22.5Q76.0 21.4 76.0 19.5L76.0 19.5L76.0 19.2Q76.0 18.0 76.5 17.0Q77.0 16.0 77.8 15.4Q78.7 14.9 79.7 14.9L79.7 14.9Q81.4 14.9 82.3 16.0Q83.2 17.0 83.2 19.1L83.2 19.1L83.2 19.7L77.5 19.7Q77.5 20.9 78.2 21.7Q78.9 22.5 80.0 22.5L80.0 22.5Q80.7 22.5 81.3 22.1Q81.8 21.8 82.2 21.3L82.2 21.3L83.1 22.0Q82.0 23.6 79.9 23.6ZM79.7 16.1L79.7 16.1Q78.8 16.1 78.2 16.7Q77.6 17.3 77.5 18.5L77.5 18.5L81.7 18.5L81.7 18.4Q81.7 17.3 81.1 16.7Q80.6 16.1 79.7 16.1ZM88.9 15.0L88.9 16.3Q88.6 16.3 88.2 16.3L88.2 16.3Q86.8 16.3 86.3 17.5L86.3 17.5L86.3 23.5L84.9 23.5L84.9 15.0L86.3 15.0L86.3 16.0Q87 14.9 88.3 14.9L88.3 14.9Q88.7 14.9 88.9 15.0L88.9 15.0ZM95.5 23.5L95.5 22.6Q94.6 23.6 93.0 23.6L93.0 23.6Q91.7 23.6 91.0 22.9Q90.3 22.1 90.2 20.5L90.2 20.5L90.2 15.0L91.7 15.0L91.7 20.5Q91.7 22.4 93.3 22.4L93.3 22.4Q94.9 22.4 95.5 21.2L95.5 21.2L95.5 15.0L96.9 15.0L96.9 23.5L95.5 23.5ZM104.0 21.2L104.0 21.2Q104.0 20.7 103.6 20.3Q103.1 20.0 102.0 19.8Q100.9 19.5 100.3 19.2Q99.6 18.9 99.3 18.4Q99.0 18.0 99.0 17.4L99.0 17.4Q99.0 16.3 99.9 15.6Q100.8 14.9 102.2 14.9L102.2 14.9Q103.6 14.9 104.5 15.6Q105.4 16.4 105.4 17.5L105.4 17.5L103.9 17.5Q103.9 16.9 103.4 16.5Q102.9 16.1 102.2 16.1L102.2 16.1Q101.4 16.1 100.9 16.4Q100.5 16.7 100.5 17.3L100.5 17.3Q100.5 17.8 100.9 18.1Q101.3 18.4 102.4 18.6Q103.5 18.8 104.1 19.2Q104.8 19.5 105.1 20.0Q105.5 20.5 105.5 21.1L105.5 21.1Q105.5 22.3 104.6 23.0Q103.6 23.6 102.2 23.6L102.2 23.6Q101.2 23.6 100.4 23.3Q99.6 22.9 99.2 22.3Q98.7 21.6 98.7 20.9L98.7 20.9L100.2 20.9Q100.2 21.6 100.8 22.0Q101.3 22.5 102.2 22.5L102.2 22.5Q103.0 22.5 103.5 22.1Q104.0 21.8 104.0 21.2ZM110.9 23.6L110.9 23.6Q109.1 23.6 108.1 22.5Q107.0 21.4 107.0 19.5L107.0 19.5L107.0 19.2Q107.0 18.0 107.5 17.0Q107.9 16.0 108.8 15.4Q109.7 14.9 110.7 14.9L110.7 14.9Q112.3 14.9 113.2 16.0Q114.1 17.0 114.1 19.1L114.1 19.1L114.1 19.7L108.4 19.7Q108.5 20.9 109.2 21.7Q109.9 22.5 110.9 22.5L110.9 22.5Q111.7 22.5 112.2 22.1Q112.8 21.8 113.2 21.3L113.2 21.3L114.0 22.0Q113.0 23.6 110.9 23.6ZM110.7 16.1L110.7 16.1Q109.8 16.1 109.2 16.7Q108.6 17.3 108.5 18.5L108.5 18.5L112.7 18.5L112.7 18.4Q112.6 17.3 112.1 16.7Q111.6 16.1 110.7 16.1ZM119.9 15.0L119.9 16.3Q119.6 16.3 119.2 16.3L119.2 16.3Q117.8 16.3 117.3 17.5L117.3 17.5L117.3 23.5L115.8 23.5L115.8 15.0L117.2 15.0L117.3 16.0Q118.0 14.9 119.3 14.9L119.3 14.9Q119.7 14.9 119.9 15.0L119.9 15.0Z "/><defs><clipPath id="satori_bc-id-0-0-1"><path x="48" y="27" width="132" height="52" d="M74,27 h80 a26,26 0 0 1 26,26 v0 a26,26 0 0 1 -26,26 h-80 a26,26 0 0 1 -26,-26 v0 a26,26 0 0 1 26,-26"/></clipPath></defs><path x="48" y="27" width="132" height="52" fill="#262a33" d="M74,27 h80 a26,26 0 0 1 26,26 v0 a26,26 0 0 1 -26,26 h-80 a26,26 0 0 1 -26,-26 v0 a26,26 0 0 1 26,-26"/><path width="132" height="52" clip-path="url(#satori_bc-id-0-0-1)" fill="none" stroke="#e5f7ef" stroke-width="4" d="M55.614999999999995,34.614999999999995 A26,26 0 0 1 74,27 h80 a26,26 0 0 1 26,26 v0 a26,26 0 0 1 -26,26 h-80 a26,26 0 0 1 -26,-26 v0 A26,26 0 0 1 55.614999999999995,34.614999999999995"/><path x="58" y="37" width="32" height="32" fill="#43ffaf" d="M74,37 h0 a16,16 0 0 1 16,16 v0 a16,16 0 0 1 -16,16 h0 a16,16 0 0 1 -16,-16 v0 a16,16 0 0 1 16,-16"/><path x="98" y="37" width="32" height="32" fill="#526777" d="M114,37 h0 a16,16 0 0 1 16,16 v0 a16,16 0 0 1 -16,16 h0 a16,16 0 0 1 -16,-16 v0 a16,16 0 0 1 16,-16"/><path x="138" y="37" width="32" height="32" fill="#e5f7ef" d="M154,37 h0 a16,16 0 0 1 16,16 v0 a16,16 0 0 1 -16,16 h0 a16,16 0 0 1 -16,-16 v0 a16,16 0 0 1 16,-16"/><path fill="#888" d="M193.3 23.5L189.3 23.5L189.3 12.1L193.0 12.1Q194.9 12.1 195.8 12.9Q196.8 13.6 196.8 15.1L196.8 15.1Q196.8 15.9 196.3 16.5Q195.9 17.2 195.1 17.5L195.1 17.5Q196.0 17.8 196.5 18.5Q197.1 19.2 197.1 20.2L197.1 20.2Q197.1 21.7 196.1 22.6Q195.1 23.5 193.3 23.5L193.3 23.5ZM193.3 18.2L190.8 18.2L190.8 22.3L193.3 22.3Q194.3 22.3 194.9 21.7Q195.6 21.2 195.6 20.2L195.6 20.2Q195.6 18.2 193.3 18.2L193.3 18.2ZM190.8 13.3L190.8 17.0L193.1 17.0Q194.1 17.0 194.7 16.5Q195.3 16.0 195.3 15.1L195.3 15.1Q195.3 14.2 194.7 13.8Q194.2 13.3 193.0 13.3L193.0 13.3L190.8 13.3ZM198.7 19.3L198.7 19.2Q198.7 17.9 199.2 16.9Q199.6 16.0 200.5 15.4Q201.4 14.9 202.5 14.9L202.5 14.9Q204.2 14.9 205.3 16.1Q206.4 17.3 206.4 19.2L206.4 19.2L206.4 19.4Q206.4 20.6 205.9 21.6Q205.4 22.5 204.5 23.1Q203.7 23.6 202.5 23.6L202.5 23.6Q200.8 23.6 199.7 22.4Q198.7 21.2 198.7 19.3L198.7 19.3ZM200.1 19.4L200.1 19.4Q200.1 20.8 200.8 21.6Q201.4 22.5 202.5 22.5L202.5 22.5Q203.6 22.5 204.3 21.6Q204.9 20.7 204.9 19.2L204.9 19.2Q204.9 17.8 204.3 16.9Q203.6 16.1 202.5 16.1L202.5 16.1Q201.4 16.1 200.8 16.9Q200.1 17.8 200.1 19.4ZM209.8 11.5L209.8 23.5L208.3 23.5L208.3 11.5L209.8 11.5ZM211.7 19.3L211.7 19.2Q211.7 17.2 212.6 16.1Q213.6 14.9 215.0 14.9L215.0 14.9Q216.5 14.9 217.4 15.9L217.4 15.9L217.4 11.5L218.8 11.5L218.8 23.5L217.5 23.5L217.4 22.6Q216.6 23.6 215.0 23.6L215.0 23.6Q213.6 23.6 212.6 22.4Q211.7 21.2 211.7 19.3L211.7 19.3ZM213.2 19.4L213.2 19.4Q213.2 20.8 213.8 21.6Q214.3 22.4 215.4 22.4L215.4 22.4Q216.8 22.4 217.4 21.2L217.4 21.2L217.4 17.3Q216.8 16.1 215.4 16.1L215.4 16.1Q214.3 16.1 213.8 16.9Q213.2 17.7 213.2 19.4Z "/><defs><clipPath id="satori_bc-id-0-1-1"><path x="188" y="27" width="132" height="52" d="M214,27 h80 a26,26 0 0 1 26,26 v0 a26,26 0 0 1 -26,26 h-80 a26,26 0 0 1 -26,-26 v0 a26,26 0 0 1 26,-26"/></clipPath></defs><path x="188" y="27" width="132" height="52" fill="#0f0d0d" d="M214,27 h80 a26,26 0 0 1 26,26 v0 a26,26 0 0 1 -26,26 h-80 a26,26 0 0 1 -26,-26 v0 a26,26 0 0 1 26,-26"/><path width="132" height="52" clip-path="url(#satori_bc-id-0-1-1)" fill="none" stroke="#ffffff" stroke-width="4" d="M195.615,34.614999999999995 A26,26 0 0 1 214,27 h80 a26,26 0 0 1 26,26 v0 a26,26 0 0 1 -26,26 h-80 a26,26 0 0 1 -26,-26 v0 A26,26 0 0 1 195.615,34.614999999999995"/><path x="198" y="37" width="32" height="32" fill="#3d8e91" d="M214,37 h0 a16,16 0 0 1 16,16 v0 a16,16 0 0 1 -16,16 h0 a16,16 0 0 1 -16,-16 v0 a16,16 0 0 1 16,-16"/><path x="238" y="37" width="32" height="32" fill="#f0624b" d="M254,37 h0 a16,16 0 0 1 16,16 v0 a16,16 0 0 1 -16,16 h0 a16,16 0 0 1 -16,-16 v0 a16,16 0 0 1 16,-16"/><path x="278" y="37" width="32" height="32" fill="#ffffff" d="M294,37 h0 a16,16 0 0 1 16,16 v0 a16,16 0 0 1 -16,16 h0 a16,16 0 0 1 -16,-16 v0 a16,16 0 0 1 16,-16"/><path fill="#888" d="M336.7 23.5L335.6 20.5L330.8 20.5L329.8 23.5L328.2 23.5L332.6 12.1L333.9 12.1L338.2 23.5L336.7 23.5ZM333.2 14.0L331.3 19.3L335.2 19.3L333.2 14.0ZM345.7 16.1L341.0 22.3L345.9 22.3L345.9 23.5L339.2 23.5L339.2 22.4L343.9 16.2L339.3 16.2L339.3 15.0L345.7 15.0L345.7 16.1ZM352.8 23.5L352.8 22.6Q351.9 23.6 350.3 23.6L350.3 23.6Q348.9 23.6 348.2 22.9Q347.5 22.1 347.5 20.5L347.5 20.5L347.5 15.0L349.0 15.0L349.0 20.5Q349.0 22.4 350.5 22.4L350.5 22.4Q352.2 22.4 352.7 21.2L352.7 21.2L352.7 15.0L354.2 15.0L354.2 23.5L352.8 23.5ZM360.5 15.0L360.5 16.3Q360.1 16.3 359.8 16.3L359.8 16.3Q358.3 16.3 357.8 17.5L357.8 17.5L357.8 23.5L356.4 23.5L356.4 15.0L357.8 15.0L357.8 16.0Q358.5 14.9 359.8 14.9L359.8 14.9Q360.2 14.9 360.5 15.0L360.5 15.0ZM365.1 23.6L365.1 23.6Q363.4 23.6 362.4 22.5Q361.3 21.4 361.3 19.5L361.3 19.5L361.3 19.2Q361.3 18.0 361.8 17.0Q362.2 16.0 363.1 15.4Q364.0 14.9 365.0 14.9L365.0 14.9Q366.6 14.9 367.5 16.0Q368.4 17.0 368.4 19.1L368.4 19.1L368.4 19.7L362.7 19.7Q362.8 20.9 363.4 21.7Q364.1 22.5 365.2 22.5L365.2 22.5Q366.0 22.5 366.5 22.1Q367.1 21.8 367.5 21.3L367.5 21.3L368.3 22.0Q367.3 23.6 365.1 23.6ZM365.0 16.1L365.0 16.1Q364.1 16.1 363.5 16.7Q362.9 17.3 362.8 18.5L362.8 18.5L367 18.5L367 18.4Q366.9 17.3 366.4 16.7Q365.9 16.1 365.0 16.1Z "/><defs><clipPath id="satori_bc-id-0-2-1"><path x="328" y="27" width="132" height="52" d="M354,27 h80 a26,26 0 0 1 26,26 v0 a26,26 0 0 1 -26,26 h-80 a26,26 0 0 1 -26,-26 v0 a26,26 0 0 1 26,-26"/></clipPath></defs><path x="328" y="27" width="132" height="52" fill="#181d26" d="M354,27 h80 a26,26 0 0 1 26,26 v0 a26,26 0 0 1 -26,26 h-80 a26,26 0 0 1 -26,-26 v0 a26,26 0 0 1 26,-26"/><path width="132" height="52" clip-path="url(#satori_bc-id-0-2-1)" fill="none" stroke="#ffffff" stroke-width="4" d="M335.615,34.614999999999995 A26,26 0 0 1 354,27 h80 a26,26 0 0 1 26,26 v0 a26,26 0 0 1 -26,26 h-80 a26,26 0 0 1 -26,-26 v0 A26,26 0 0 1 335.615,34.614999999999995"/><path x="338" y="37" width="32" height="32" fill="#508aaa" d="M354,37 h0 a16,16 0 0 1 16,16 v0 a16,16 0 0 1 -16,16 h0 a16,16 0 0 1 -16,-16 v0 a16,16 0 0 1 16,-16"/><path x="378" y="37" width="32" height="32" fill="#64aeb3" d="M394,37 h0 a16,16 0 0 1 16,16 v0 a16,16 0 0 1 -16,16 h0 a16,16 0 0 1 -16,-16 v0 a16,16 0 0 1 16,-16"/><path x="418" y="37" width="32" height="32" fill="#ffffff" d="M434,37 h0 a16,16 0 0 1 16,16 v0 a16,16 0 0 1 -16,16 h0 a16,16 0 0 1 -16,-16 v0 a16,16 0 0 1 16,-16"/><path fill="#888" d="M57.2 99.1L57.2 100.3L53.5 100.3L53.5 110.5L52.0 110.5L52.0 100.3L48.4 100.3L48.4 99.1L57.2 99.1ZM64.5 110.5L63.0 110.5Q62.9 110.2 62.8 109.6L62.8 109.6Q61.8 110.6 60.4 110.6L60.4 110.6Q59.1 110.6 58.3 109.9Q57.5 109.2 57.5 108.1L57.5 108.1Q57.5 106.8 58.5 106.1Q59.5 105.4 61.3 105.4L61.3 105.4L62.8 105.4L62.8 104.7Q62.8 103.9 62.3 103.5Q61.8 103.0 61.0 103.0L61.0 103.0Q60.2 103.0 59.7 103.4Q59.1 103.8 59.1 104.4L59.1 104.4L57.7 104.4Q57.7 103.7 58.1 103.2Q58.6 102.6 59.4 102.2Q60.1 101.9 61.0 101.9L61.0 101.9Q62.5 101.9 63.3 102.6Q64.2 103.3 64.2 104.6L64.2 104.6L64.2 108.5Q64.2 109.7 64.5 110.4L64.5 110.4L64.5 110.5ZM60.6 109.4L60.6 109.4Q61.3 109.4 61.9 109.0Q62.5 108.7 62.8 108.1L62.8 108.1L62.8 106.4L61.6 106.4Q59.0 106.4 59.0 107.9L59.0 107.9Q59.0 108.6 59.4 109.0Q59.9 109.4 60.6 109.4ZM70.5 102.0L70.5 103.3Q70.2 103.3 69.8 103.3L69.8 103.3Q68.4 103.3 67.9 104.5L67.9 104.5L67.9 110.5L66.5 110.5L66.5 102.0L67.9 102.0L67.9 103.0Q68.6 101.9 69.9 101.9L69.9 101.9Q70.3 101.9 70.5 102.0L70.5 102.0ZM71.3 106.3L71.3 106.2Q71.3 104.9 71.8 103.9Q72.3 103.0 73.2 102.4Q74.1 101.9 75.2 101.9L75.2 101.9Q76.9 101.9 78.0 103.1Q79.0 104.3 79.0 106.2L79.0 106.2L79.0 106.4Q79.0 107.6 78.6 108.6Q78.1 109.5 77.2 110.1Q76.3 110.6 75.2 110.6L75.2 110.6Q73.5 110.6 72.4 109.4Q71.3 108.2 71.3 106.3L71.3 106.3ZM72.8 106.4L72.8 106.4Q72.8 107.8 73.4 108.6Q74.1 109.5 75.2 109.5L75.2 109.5Q76.3 109.5 76.9 108.6Q77.6 107.7 77.6 106.2L77.6 106.2Q77.6 104.8 76.9 103.9Q76.3 103.1 75.2 103.1L75.2 103.1Q74.1 103.1 73.4 103.9Q72.8 104.8 72.8 106.4Z "/><defs><clipPath id="satori_bc-id-0-3-1"><path x="48" y="114" width="132" height="52" d="M74,114 h80 a26,26 0 0 1 26,26 v0 a26,26 0 0 1 -26,26 h-80 a26,26 0 0 1 -26,-26 v0 a26,26 0 0 1 26,-26"/></clipPath></defs><path x="48" y="114" width="132" height="52" fill="#D1C4E9" d="M74,114 h80 a26,26 0 0 1 26,26 v0 a26,26 0 0 1 -26,26 h-80 a26,26 0 0 1 -26,-26 v0 a26,26 0 0 1 26,-26"/><path width="132" height="52" clip-path="url(#satori_bc-id-0-3-1)" fill="none" stroke="#311B92" stroke-width="4" d="M55.614999999999995,121.615 A26,26 0 0 1 74,114 h80 a26,26 0 0 1 26,26 v0 a26,26 0 0 1 -26,26 h-80 a26,26 0 0 1 -26,-26 v0 A26,26 0 0 1 55.614999999999995,121.615"/><path x="58" y="124" width="32" height="32" fill="#9575CD" d="M74,124 h0 a16,16 0 0 1 16,16 v0 a16,16 0 0 1 -16,16 h0 a16,16 0 0 1 -16,-16 v0 a16,16 0 0 1 16,-16"/><path x="98" y="124" width="32" height="32" fill="#673AB7" d="M114,124 h0 a16,16 0 0 1 16,16 v0 a16,16 0 0 1 -16,16 h0 a16,16 0 0 1 -16,-16 v0 a16,16 0 0 1 16,-16"/><path x="138" y="124" width="32" height="32" fill="#311B92" d="M154,124 h0 a16,16 0 0 1 16,16 v0 a16,16 0 0 1 -16,16 h0 a16,16 0 0 1 -16,-16 v0 a16,16 0 0 1 16,-16"/><path fill="#888" d="M189.9 99.1L193.1 108.5L196.3 99.1L198.0 99.1L193.8 110.5L192.4 110.5L188.2 99.1L189.9 99.1ZM204.2 108.2L204.2 108.2Q204.2 107.7 203.8 107.3Q203.3 107.0 202.2 106.8Q201.1 106.5 200.5 106.2Q199.8 105.9 199.5 105.4Q199.2 105.0 199.2 104.4L199.2 104.4Q199.2 103.3 200.1 102.6Q201.0 101.9 202.3 101.9L202.3 101.9Q203.8 101.9 204.7 102.6Q205.6 103.4 205.6 104.5L205.6 104.5L204.1 104.5Q204.1 103.9 203.6 103.5Q203.1 103.1 202.3 103.1L202.3 103.1Q201.5 103.1 201.1 103.4Q200.7 103.7 200.7 104.3L200.7 104.3Q200.7 104.8 201.1 105.1Q201.5 105.4 202.6 105.6Q203.6 105.8 204.3 106.2Q205.0 106.5 205.3 107.0Q205.6 107.5 205.6 108.1L205.6 108.1Q205.6 109.3 204.7 110.0Q203.8 110.6 202.4 110.6L202.4 110.6Q201.4 110.6 200.6 110.3Q199.8 109.9 199.4 109.3Q198.9 108.6 198.9 107.9L198.9 107.9L200.4 107.9Q200.4 108.6 200.9 109.0Q201.5 109.5 202.4 109.5L202.4 109.5Q203.2 109.5 203.7 109.1Q204.2 108.8 204.2 108.2ZM210.9 109.5L210.9 109.5Q211.7 109.5 212.3 109.0Q212.8 108.5 212.9 107.8L212.9 107.8L214.3 107.8Q214.2 108.5 213.8 109.2Q213.3 109.9 212.5 110.2Q211.8 110.6 210.9 110.6L210.9 110.6Q209.2 110.6 208.2 109.5Q207.1 108.3 207.1 106.3L207.1 106.3L207.1 106.1Q207.1 104.9 207.6 103.9Q208.1 102.9 208.9 102.4Q209.8 101.9 210.9 101.9L210.9 101.9Q212.3 101.9 213.3 102.7Q214.2 103.6 214.3 104.9L214.3 104.9L212.9 104.9Q212.8 104.1 212.3 103.6Q211.7 103.1 210.9 103.1L210.9 103.1Q209.8 103.1 209.2 103.9Q208.6 104.6 208.6 106.1L208.6 106.1L208.6 106.4Q208.6 107.9 209.2 108.7Q209.8 109.5 210.9 109.5ZM215.5 106.3L215.5 106.2Q215.5 104.9 216.0 103.9Q216.5 103.0 217.4 102.4Q218.2 101.9 219.4 101.9L219.4 101.9Q221.1 101.9 222.1 103.1Q223.2 104.3 223.2 106.2L223.2 106.2L223.2 106.4Q223.2 107.6 222.7 108.6Q222.3 109.5 221.4 110.1Q220.5 110.6 219.4 110.6L219.4 110.6Q217.6 110.6 216.6 109.4Q215.5 108.2 215.5 106.3L215.5 106.3ZM217.0 106.4L217.0 106.4Q217.0 107.8 217.6 108.6Q218.3 109.5 219.4 109.5L219.4 109.5Q220.5 109.5 221.1 108.6Q221.8 107.7 221.8 106.2L221.8 106.2Q221.8 104.8 221.1 103.9Q220.4 103.1 219.4 103.1L219.4 103.1Q218.3 103.1 217.6 103.9Q217.0 104.8 217.0 106.4ZM224.7 106.3L224.7 106.2Q224.7 104.2 225.6 103.1Q226.5 101.9 228.0 101.9L228.0 101.9Q229.5 101.9 230.4 102.9L230.4 102.9L230.4 98.5L231.8 98.5L231.8 110.5L230.5 110.5L230.4 109.6Q229.5 110.6 228.0 110.6L228.0 110.6Q226.5 110.6 225.6 109.4Q224.7 108.2 224.7 106.3L224.7 106.3ZM226.1 106.4L226.1 106.4Q226.1 107.8 226.7 108.6Q227.3 109.4 228.4 109.4L228.4 109.4Q229.7 109.4 230.4 108.2L230.4 108.2L230.4 104.3Q229.7 103.1 228.4 103.1L228.4 103.1Q227.3 103.1 226.7 103.9Q226.1 104.7 226.1 106.4ZM237.6 110.6L237.6 110.6Q235.8 110.6 234.8 109.5Q233.7 108.4 233.7 106.5L233.7 106.5L233.7 106.2Q233.7 105.0 234.2 104.0Q234.6 103.0 235.5 102.4Q236.4 101.9 237.4 101.9L237.4 101.9Q239.0 101.9 239.9 103.0Q240.9 104.0 240.9 106.1L240.9 106.1L240.9 106.7L235.1 106.7Q235.2 107.9 235.9 108.7Q236.6 109.5 237.6 109.5L237.6 109.5Q238.4 109.5 238.9 109.1Q239.5 108.8 239.9 108.3L239.9 108.3L240.7 109.0Q239.7 110.6 237.6 110.6ZM237.4 103.1L237.4 103.1Q236.5 103.1 235.9 103.7Q235.3 104.3 235.2 105.5L235.2 105.5L239.4 105.5L239.4 105.4Q239.3 104.3 238.8 103.7Q238.3 103.1 237.4 103.1Z "/><defs><clipPath id="satori_bc-id-0-4-1"><path x="188" y="114" width="132" height="52" d="M214,114 h80 a26,26 0 0 1 26,26 v0 a26,26 0 0 1 -26,26 h-80 a26,26 0 0 1 -26,-26 v0 a26,26 0 0 1 26,-26"/></clipPath></defs><path x="188" y="114" width="132" height="52" fill="#1E1E1E" d="M214,114 h80 a26,26 0 0 1 26,26 v0 a26,26 0 0 1 -26,26 h-80 a26,26 0 0 1 -26,-26 v0 a26,26 0 0 1 26,-26"/><path width="132" height="52" clip-path="url(#satori_bc-id-0-4-1)" fill="none" stroke="#D4D4D4" stroke-width="4" d="M195.615,121.615 A26,26 0 0 1 214,114 h80 a26,26 0 0 1 26,26 v0 a26,26 0 0 1 -26,26 h-80 a26,26 0 0 1 -26,-26 v0 A26,26 0 0 1 195.615,121.615"/><path x="198" y="124" width="32" height="32" fill="#569CD6" d="M214,124 h0 a16,16 0 0 1 16,16 v0 a16,16 0 0 1 -16,16 h0 a16,16 0 0 1 -16,-16 v0 a16,16 0 0 1 16,-16"/><path x="238" y="124" width="32" height="32" fill="#9CDCFE" d="M254,124 h0 a16,16 0 0 1 16,16 v0 a16,16 0 0 1 -16,16 h0 a16,16 0 0 1 -16,-16 v0 a16,16 0 0 1 16,-16"/><path x="278" y="124" width="32" height="32" fill="#D4D4D4" d="M294,124 h0 a16,16 0 0 1 16,16 v0 a16,16 0 0 1 -16,16 h0 a16,16 0 0 1 -16,-16 v0 a16,16 0 0 1 16,-16"/><path fill="#888" d="M329.3 99.1L331.3 99.1L335.0 108.4L338.7 99.1L340.6 99.1L340.6 110.5L339.1 110.5L339.1 106.1L339.3 101.3L335.5 110.5L334.4 110.5L330.7 101.3L330.8 106.1L330.8 110.5L329.3 110.5L329.3 99.1ZM349.8 110.5L348.3 110.5Q348.2 110.2 348.1 109.6L348.1 109.6Q347.1 110.6 345.7 110.6L345.7 110.6Q344.4 110.6 343.6 109.9Q342.8 109.2 342.8 108.1L342.8 108.1Q342.8 106.8 343.8 106.1Q344.8 105.4 346.6 105.4L346.6 105.4L348.1 105.4L348.1 104.7Q348.1 103.9 347.6 103.5Q347.1 103.0 346.3 103.0L346.3 103.0Q345.5 103.0 345.0 103.4Q344.4 103.8 344.4 104.4L344.4 104.4L343.0 104.4Q343.0 103.7 343.4 103.2Q343.9 102.6 344.7 102.2Q345.4 101.9 346.4 101.9L346.4 101.9Q347.8 101.9 348.6 102.6Q349.5 103.3 349.5 104.6L349.5 104.6L349.5 108.5Q349.5 109.7 349.8 110.4L349.8 110.4L349.8 110.5ZM345.9 109.4L345.9 109.4Q346.6 109.4 347.2 109.0Q347.8 108.7 348.1 108.1L348.1 108.1L348.1 106.4L346.9 106.4Q344.3 106.4 344.3 107.9L344.3 107.9Q344.3 108.6 344.7 109.0Q345.2 109.4 345.9 109.4ZM352.3 100.0L353.7 100.0L353.7 102.0L355.3 102.0L355.3 103.1L353.7 103.1L353.7 108.4Q353.7 108.9 353.9 109.2Q354.1 109.4 354.7 109.4L354.7 109.4Q354.9 109.4 355.3 109.3L355.3 109.3L355.3 110.5Q354.8 110.6 354.2 110.6L354.2 110.6Q353.3 110.6 352.8 110.1Q352.3 109.5 352.3 108.4L352.3 108.4L352.3 103.1L350.7 103.1L350.7 102.0L352.3 102.0L352.3 100.0ZM361.1 102.0L361.1 103.3Q360.8 103.3 360.4 103.3L360.4 103.3Q358.9 103.3 358.4 104.5L358.4 104.5L358.4 110.5L357.0 110.5L357.0 102.0L358.4 102.0L358.4 103.0Q359.1 101.9 360.4 101.9L360.4 101.9Q360.9 101.9 361.1 102.0L361.1 102.0ZM364.0 102.0L364.0 110.5L362.5 110.5L362.5 102.0L364.0 102.0ZM362.4 99.8L362.4 99.8Q362.4 99.4 362.6 99.2Q362.8 99.0 363.3 99.0Q363.7 99.0 363.9 99.2Q364.1 99.4 364.1 99.8Q364.1 100.1 363.9 100.4Q363.7 100.6 363.3 100.6Q362.8 100.6 362.6 100.4Q362.4 100.1 362.4 99.8ZM367.3 102.0L369.1 105.1L371 102.0L372.7 102.0L369.9 106.2L372.8 110.5L371.1 110.5L369.1 107.3L367.2 110.5L365.5 110.5L368.4 106.2L365.6 102.0L367.3 102.0Z "/><defs><clipPath id="satori_bc-id-0-5-1"><path x="328" y="114" width="132" height="52" d="M354,114 h80 a26,26 0 0 1 26,26 v0 a26,26 0 0 1 -26,26 h-80 a26,26 0 0 1 -26,-26 v0 a26,26 0 0 1 26,-26"/></clipPath></defs><path x="328" y="114" width="132" height="52" fill="#0C0C0C" d="M354,114 h80 a26,26 0 0 1 26,26 v0 a26,26 0 0 1 -26,26 h-80 a26,26 0 0 1 -26,-26 v0 a26,26 0 0 1 26,-26"/><path width="132" height="52" clip-path="url(#satori_bc-id-0-5-1)" fill="none" stroke="#33FF33" stroke-width="4" d="M335.615,121.615 A26,26 0 0 1 354,114 h80 a26,26 0 0 1 26,26 v0 a26,26 0 0 1 -26,26 h-80 a26,26 0 0 1 -26,-26 v0 A26,26 0 0 1 335.615,121.615"/><path x="338" y="124" width="32" height="32" fill="#99FF99" d="M354,124 h0 a16,16 0 0 1 16,16 v0 a16,16 0 0 1 -16,16 h0 a16,16 0 0 1 -16,-16 v0 a16,16 0 0 1 16,-16"/><path x="378" y="124" width="32" height="32" fill="#66FF66" d="M394,124 h0 a16,16 0 0 1 16,16 v0 a16,16 0 0 1 -16,16 h0 a16,16 0 0 1 -16,-16 v0 a16,16 0 0 1 16,-16"/><path x="418" y="124" width="32" height="32" fill="#33FF33" d="M434,124 h0 a16,16 0 0 1 16,16 v0 a16,16 0 0 1 -16,16 h0 a16,16 0 0 1 -16,-16 v0 a16,16 0 0 1 16,-16"/><path fill="#888" d="M52.5 197.5L49.3 197.5L49.3 186.1L52.5 186.1Q54.0 186.1 55.2 186.8Q56.3 187.4 56.9 188.6Q57.5 189.8 57.5 191.4L57.5 191.4L57.5 192.1Q57.5 193.7 56.9 195.0Q56.3 196.2 55.2 196.8Q54 197.5 52.5 197.5L52.5 197.5ZM52.6 187.3L50.8 187.3L50.8 196.3L52.4 196.3Q54.1 196.3 55.1 195.2Q56.1 194.1 56.1 192.1L56.1 192.1L56.1 191.4Q56.1 189.5 55.2 188.4Q54.2 187.4 52.6 187.3L52.6 187.3ZM64.8 197.5L64.8 196.6Q64.0 197.6 62.3 197.6L62.3 197.6Q61.0 197.6 60.3 196.9Q59.6 196.1 59.6 194.5L59.6 194.5L59.6 189.0L61 189.0L61 194.5Q61 196.4 62.6 196.4L62.6 196.4Q64.2 196.4 64.8 195.2L64.8 195.2L64.8 189.0L66.2 189.0L66.2 197.5L64.8 197.5ZM75.1 197.5L73.6 197.5Q73.5 197.2 73.4 196.6L73.4 196.6Q72.4 197.6 71.0 197.6L71.0 197.6Q69.8 197.6 69.0 196.9Q68.2 196.2 68.2 195.1L68.2 195.1Q68.2 193.8 69.2 193.1Q70.2 192.4 72.0 192.4L72.0 192.4L73.4 192.4L73.4 191.7Q73.4 190.9 72.9 190.5Q72.5 190.0 71.6 190.0L71.6 190.0Q70.8 190.0 70.3 190.4Q69.8 190.8 69.8 191.4L69.8 191.4L68.3 191.4Q68.3 190.7 68.8 190.2Q69.2 189.6 70.0 189.2Q70.8 188.9 71.7 188.9L71.7 188.9Q73.2 188.9 74.0 189.6Q74.8 190.3 74.8 191.6L74.8 191.6L74.8 195.5Q74.8 196.7 75.1 197.4L75.1 197.4L75.1 197.5ZM71.2 196.4L71.2 196.4Q71.9 196.4 72.5 196.0Q73.1 195.7 73.4 195.1L73.4 195.1L73.4 193.4L72.3 193.4Q69.6 193.4 69.6 194.9L69.6 194.9Q69.6 195.6 70.1 196.0Q70.5 196.4 71.2 196.4ZM78.7 185.5L78.7 197.5L77.2 197.5L77.2 185.5L78.7 185.5ZM85.9 195.2L85.9 195.2Q85.9 194.7 85.5 194.3Q85.0 194.0 83.9 193.8Q82.8 193.5 82.2 193.2Q81.5 192.9 81.2 192.4Q80.9 192.0 80.9 191.4L80.9 191.4Q80.9 190.3 81.8 189.6Q82.7 188.9 84.1 188.9L84.1 188.9Q85.5 188.9 86.4 189.6Q87.3 190.4 87.3 191.5L87.3 191.5L85.8 191.5Q85.8 190.9 85.3 190.5Q84.8 190.1 84.1 190.1L84.1 190.1Q83.3 190.1 82.8 190.4Q82.4 190.7 82.4 191.3L82.4 191.3Q82.4 191.8 82.8 192.1Q83.2 192.4 84.3 192.6Q85.4 192.8 86.0 193.2Q86.7 193.5 87.0 194.0Q87.4 194.5 87.4 195.1L87.4 195.1Q87.4 196.3 86.5 197.0Q85.5 197.6 84.1 197.6L84.1 197.6Q83.1 197.6 82.3 197.3Q81.5 196.9 81.1 196.3Q80.6 195.6 80.6 194.9L80.6 194.9L82.1 194.9Q82.1 195.6 82.7 196.0Q83.2 196.5 84.1 196.5L84.1 196.5Q84.9 196.5 85.4 196.1Q85.9 195.8 85.9 195.2ZM90.7 185.5L90.7 190.1Q91.6 188.9 93.2 188.9L93.2 188.9Q95.9 188.9 95.9 191.9L95.9 191.9L95.9 197.5L94.4 197.5L94.4 191.9Q94.4 191.0 94.0 190.5Q93.6 190.1 92.8 190.1L92.8 190.1Q92.0 190.1 91.5 190.5Q91.0 190.9 90.7 191.5L90.7 191.5L90.7 197.5L89.2 197.5L89.2 185.5L90.7 185.5ZM97.7 193.3L97.7 193.2Q97.7 191.9 98.2 190.9Q98.6 190.0 99.5 189.4Q100.4 188.9 101.5 188.9L101.5 188.9Q103.2 188.9 104.3 190.1Q105.4 191.3 105.4 193.2L105.4 193.2L105.4 193.4Q105.4 194.6 104.9 195.6Q104.4 196.5 103.5 197.1Q102.7 197.6 101.5 197.6L101.5 197.6Q99.8 197.6 98.7 196.4Q97.7 195.2 97.7 193.3L97.7 193.3ZM99.1 193.4L99.1 193.4Q99.1 194.8 99.8 195.6Q100.4 196.5 101.5 196.5L101.5 196.5Q102.6 196.5 103.3 195.6Q103.9 194.7 103.9 193.2L103.9 193.2Q103.9 191.8 103.3 190.9Q102.6 190.1 101.5 190.1L101.5 190.1Q100.4 190.1 99.8 190.9Q99.1 191.8 99.1 193.4ZM107.7 187.0L109.1 187.0L109.1 189.0L110.7 189.0L110.7 190.1L109.1 190.1L109.1 195.4Q109.1 195.9 109.4 196.2Q109.6 196.4 110.1 196.4L110.1 196.4Q110.3 196.4 110.8 196.3L110.8 196.3L110.8 197.5Q110.2 197.6 109.6 197.6L109.6 197.6Q108.7 197.6 108.2 197.1Q107.7 196.5 107.7 195.4L107.7 195.4L107.7 190.1L106.2 190.1L106.2 189.0L107.7 189.0L107.7 187.0Z "/><defs><clipPath id="satori_bc-id-0-6-1"><path x="48" y="201" width="132" height="52" d="M74,201 h80 a26,26 0 0 1 26,26 v0 a26,26 0 0 1 -26,26 h-80 a26,26 0 0 1 -26,-26 v0 a26,26 0 0 1 26,-26"/></clipPath></defs><path x="48" y="201" width="132" height="52" fill="#262626" d="M74,201 h80 a26,26 0 0 1 26,26 v0 a26,26 0 0 1 -26,26 h-80 a26,26 0 0 1 -26,-26 v0 a26,26 0 0 1 26,-26"/><path width="132" height="52" clip-path="url(#satori_bc-id-0-6-1)" fill="none" stroke="#F5F5F5" stroke-width="4" d="M55.614999999999995,208.615 A26,26 0 0 1 74,201 h80 a26,26 0 0 1 26,26 v0 a26,26 0 0 1 -26,26 h-80 a26,26 0 0 1 -26,-26 v0 A26,26 0 0 1 55.614999999999995,208.615"/><path x="58" y="211" width="32" height="32" fill="#60A5FA" d="M74,211 h0 a16,16 0 0 1 16,16 v0 a16,16 0 0 1 -16,16 h0 a16,16 0 0 1 -16,-16 v0 a16,16 0 0 1 16,-16"/><path x="98" y="211" width="32" height="32" fill="#34D399" d="M114,211 h0 a16,16 0 0 1 16,16 v0 a16,16 0 0 1 -16,16 h0 a16,16 0 0 1 -16,-16 v0 a16,16 0 0 1 16,-16"/><path x="138" y="211" width="32" height="32" fill="#F5F5F5" d="M154,211 h0 a16,16 0 0 1 16,16 v0 a16,16 0 0 1 -16,16 h0 a16,16 0 0 1 -16,-16 v0 a16,16 0 0 1 16,-16"/><path fill="#888" d="M196.2 193.9L197.7 193.9Q197.5 195.7 196.4 196.7Q195.2 197.6 193.4 197.6L193.4 197.6Q191.4 197.6 190.1 196.2Q188.9 194.7 188.9 192.3L188.9 192.3L188.9 191.2Q188.9 189.6 189.5 188.4Q190.1 187.2 191.1 186.6Q192.1 186.0 193.5 186.0L193.5 186.0Q195.3 186.0 196.4 187.0Q197.5 188.0 197.7 189.8L197.7 189.8L196.2 189.8Q196.0 188.4 195.3 187.8Q194.7 187.2 193.5 187.2L193.5 187.2Q192.1 187.2 191.3 188.2Q190.4 189.3 190.4 191.3L190.4 191.3L190.4 192.4Q190.4 194.2 191.2 195.3Q192.0 196.4 193.4 196.4L193.4 196.4Q194.6 196.4 195.3 195.8Q196.0 195.3 196.2 193.9L196.2 193.9ZM200.2 189.0L202.3 195.4L204.2 189.0L205.8 189.0L202.4 198.8Q201.6 200.9 199.9 200.9L199.9 200.9L199.6 200.9L199.1 200.8L199.1 199.6L199.5 199.6Q200.2 199.6 200.6 199.3Q201.0 199.0 201.3 198.2L201.3 198.2L201.6 197.4L198.6 189.0L200.2 189.0ZM214.2 193.2L214.2 193.4Q214.2 195.3 213.3 196.5Q212.5 197.6 211.0 197.6L211.0 197.6Q209.4 197.6 208.5 196.5L208.5 196.5L208.4 197.5L207.1 197.5L207.1 185.5L208.5 185.5L208.5 190.0Q209.4 188.9 210.9 188.9Q212.5 188.9 213.4 190.0Q214.2 191.2 214.2 193.2L214.2 193.2ZM212.8 193.2L212.8 193.2Q212.8 191.7 212.2 190.9Q211.6 190.1 210.6 190.1L210.6 190.1Q209.1 190.1 208.5 191.4L208.5 191.4L208.5 195.1Q209.2 196.4 210.6 196.4L210.6 196.4Q211.6 196.4 212.2 195.6Q212.8 194.8 212.8 193.2ZM219.6 197.6L219.6 197.6Q217.8 197.6 216.8 196.5Q215.7 195.4 215.7 193.5L215.7 193.5L215.7 193.2Q215.7 192.0 216.2 191.0Q216.6 190.0 217.5 189.4Q218.4 188.9 219.4 188.9L219.4 188.9Q221.0 188.9 221.9 190.0Q222.9 191.0 222.9 193.1L222.9 193.1L222.9 193.7L217.1 193.7Q217.2 194.9 217.9 195.7Q218.6 196.5 219.6 196.5L219.6 196.5Q220.4 196.5 220.9 196.1Q221.5 195.8 221.9 195.3L221.9 195.3L222.8 196.0Q221.7 197.6 219.6 197.6ZM219.4 190.1L219.4 190.1Q218.5 190.1 217.9 190.7Q217.3 191.3 217.2 192.5L217.2 192.5L221.4 192.5L221.4 192.4Q221.4 191.3 220.8 190.7Q220.3 190.1 219.4 190.1ZM228.6 189.0L228.6 190.3Q228.3 190.3 227.9 190.3L227.9 190.3Q226.5 190.3 226.0 191.5L226.0 191.5L226.0 197.5L224.5 197.5L224.5 189.0L225.9 189.0L226.0 190.0Q226.7 188.9 228.0 188.9L228.0 188.9Q228.4 188.9 228.6 189.0L228.6 189.0ZM234.9 195.2L234.9 195.2Q234.9 194.7 234.4 194.3Q234.0 194.0 232.9 193.8Q231.8 193.5 231.1 193.2Q230.5 192.9 230.2 192.4Q229.9 192.0 229.9 191.4L229.9 191.4Q229.9 190.3 230.8 189.6Q231.6 188.9 233.0 188.9L233.0 188.9Q234.4 188.9 235.3 189.6Q236.2 190.4 236.2 191.5L236.2 191.5L234.8 191.5Q234.8 190.9 234.3 190.5Q233.8 190.1 233.0 190.1L233.0 190.1Q232.2 190.1 231.8 190.4Q231.3 190.7 231.3 191.3L231.3 191.3Q231.3 191.8 231.7 192.1Q232.2 192.4 233.2 192.6Q234.3 192.8 235.0 193.2Q235.7 193.5 236.0 194.0Q236.3 194.5 236.3 195.1L236.3 195.1Q236.3 196.3 235.4 197.0Q234.5 197.6 233.1 197.6L233.1 197.6Q232.0 197.6 231.3 197.3Q230.5 196.9 230.0 196.3Q229.6 195.6 229.6 194.9L229.6 194.9L231.0 194.9Q231.1 195.6 231.6 196.0Q232.2 196.5 233.1 196.5L233.1 196.5Q233.9 196.5 234.4 196.1Q234.9 195.8 234.9 195.2ZM245.3 193.2L245.3 193.4Q245.3 195.3 244.5 196.5Q243.6 197.6 242.1 197.6L242.1 197.6Q240.5 197.6 239.6 196.7L239.6 196.7L239.6 200.7L238.2 200.7L238.2 189.0L239.5 189.0L239.6 190.0Q240.5 188.9 242.0 188.9L242.0 188.9Q243.6 188.9 244.4 190.0Q245.3 191.2 245.3 193.2L245.3 193.2ZM243.9 193.2L243.9 193.2Q243.9 191.8 243.3 190.9Q242.7 190.1 241.6 190.1L241.6 190.1Q240.3 190.1 239.6 191.3L239.6 191.3L239.6 195.3Q240.3 196.5 241.6 196.5L241.6 196.5Q242.7 196.5 243.3 195.6Q243.9 194.8 243.9 193.2ZM253.9 197.5L252.4 197.5Q252.3 197.2 252.2 196.6L252.2 196.6Q251.2 197.6 249.8 197.6L249.8 197.6Q248.5 197.6 247.7 196.9Q246.9 196.2 246.9 195.1L246.9 195.1Q246.9 193.8 247.9 193.1Q248.9 192.4 250.8 192.4L250.8 192.4L252.2 192.4L252.2 191.7Q252.2 190.9 251.7 190.5Q251.3 190.0 250.4 190.0L250.4 190.0Q249.6 190.0 249.1 190.4Q248.6 190.8 248.6 191.4L248.6 191.4L247.1 191.4Q247.1 190.7 247.6 190.2Q248 189.6 248.8 189.2Q249.5 188.9 250.5 188.9L250.5 188.9Q251.9 188.9 252.8 189.6Q253.6 190.3 253.6 191.6L253.6 191.6L253.6 195.5Q253.6 196.7 253.9 197.4L253.9 197.4L253.9 197.5ZM250.0 196.4L250.0 196.4Q250.7 196.4 251.3 196.0Q251.9 195.7 252.2 195.1L252.2 195.1L252.2 193.4L251.0 193.4Q248.4 193.4 248.4 194.9L248.4 194.9Q248.4 195.6 248.8 196.0Q249.3 196.4 250.0 196.4ZM259.3 196.5L259.3 196.5Q260.0 196.5 260.6 196.0Q261.2 195.5 261.3 194.8L261.3 194.8L262.6 194.8Q262.6 195.5 262.1 196.2Q261.7 196.9 260.9 197.2Q260.1 197.6 259.3 197.6L259.3 197.6Q257.5 197.6 256.5 196.5Q255.5 195.3 255.5 193.3L255.5 193.3L255.5 193.1Q255.5 191.9 256.0 190.9Q256.4 189.9 257.3 189.4Q258.1 188.9 259.3 188.9L259.3 188.9Q260.7 188.9 261.6 189.7Q262.6 190.6 262.6 191.9L262.6 191.9L261.3 191.9Q261.2 191.1 260.6 190.6Q260.1 190.1 259.3 190.1L259.3 190.1Q258.2 190.1 257.6 190.9Q256.9 191.6 256.9 193.1L256.9 193.1L256.9 193.4Q256.9 194.9 257.5 195.7Q258.1 196.5 259.3 196.5ZM267.8 197.6L267.8 197.6Q266.0 197.6 265.0 196.5Q263.9 195.4 263.9 193.5L263.9 193.5L263.9 193.2Q263.9 192.0 264.4 191.0Q264.8 190.0 265.7 189.4Q266.6 188.9 267.6 188.9L267.6 188.9Q269.2 188.9 270.1 190.0Q271.1 191.0 271.1 193.1L271.1 193.1L271.1 193.7L265.3 193.7Q265.4 194.9 266.1 195.7Q266.8 196.5 267.8 196.5L267.8 196.5Q268.6 196.5 269.1 196.1Q269.7 195.8 270.1 195.3L270.1 195.3L270.9 196.0Q269.9 197.6 267.8 197.6ZM267.6 190.1L267.6 190.1Q266.7 190.1 266.1 190.7Q265.5 191.3 265.4 192.5L265.4 192.5L269.6 192.5L269.6 192.4Q269.5 191.3 269.0 190.7Q268.5 190.1 267.6 190.1Z "/><defs><clipPath id="satori_bc-id-0-7-1"><path x="188" y="201" width="132" height="52" d="M214,201 h80 a26,26 0 0 1 26,26 v0 a26,26 0 0 1 -26,26 h-80 a26,26 0 0 1 -26,-26 v0 a26,26 0 0 1 26,-26"/></clipPath></defs><path x="188" y="201" width="132" height="52" fill="#000B1E" d="M214,201 h80 a26,26 0 0 1 26,26 v0 a26,26 0 0 1 -26,26 h-80 a26,26 0 0 1 -26,-26 v0 a26,26 0 0 1 26,-26"/><path width="132" height="52" clip-path="url(#satori_bc-id-0-7-1)" fill="none" stroke="#A9B7C6" stroke-width="4" d="M195.615,208.615 A26,26 0 0 1 214,201 h80 a26,26 0 0 1 26,26 v0 a26,26 0 0 1 -26,26 h-80 a26,26 0 0 1 -26,-26 v0 A26,26 0 0 1 195.615,208.615"/><path x="198" y="211" width="32" height="32" fill="#FFCB6B" d="M214,211 h0 a16,16 0 0 1 16,16 v0 a16,16 0 0 1 -16,16 h0 a16,16 0 0 1 -16,-16 v0 a16,16 0 0 1 16,-16"/><path x="238" y="211" width="32" height="32" fill="#82AAFF" d="M254,211 h0 a16,16 0 0 1 16,16 v0 a16,16 0 0 1 -16,16 h0 a16,16 0 0 1 -16,-16 v0 a16,16 0 0 1 16,-16"/><path x="278" y="211" width="32" height="32" fill="#A9B7C6" d="M294,211 h0 a16,16 0 0 1 16,16 v0 a16,16 0 0 1 -16,16 h0 a16,16 0 0 1 -16,-16 v0 a16,16 0 0 1 16,-16"/><path fill="#888" d="M333.3 197.5L329.3 197.5L329.3 186.1L333.0 186.1Q334.9 186.1 335.8 186.9Q336.8 187.6 336.8 189.1L336.8 189.1Q336.8 189.9 336.3 190.5Q335.9 191.2 335.1 191.5L335.1 191.5Q336.0 191.8 336.5 192.5Q337.1 193.2 337.1 194.2L337.1 194.2Q337.1 195.7 336.1 196.6Q335.1 197.5 333.3 197.5L333.3 197.5ZM333.3 192.2L330.8 192.2L330.8 196.3L333.3 196.3Q334.3 196.3 334.9 195.7Q335.6 195.2 335.6 194.2L335.6 194.2Q335.6 192.2 333.3 192.2L333.3 192.2ZM330.8 187.3L330.8 191.0L333.1 191.0Q334.1 191.0 334.7 190.5Q335.3 190.0 335.3 189.1L335.3 189.1Q335.3 188.2 334.7 187.8Q334.2 187.3 333.0 187.3L333.0 187.3L330.8 187.3ZM342.6 197.6L342.6 197.6Q340.8 197.6 339.8 196.5Q338.7 195.4 338.7 193.5L338.7 193.5L338.7 193.2Q338.7 192.0 339.2 191.0Q339.6 190.0 340.5 189.4Q341.4 188.9 342.4 188.9L342.4 188.9Q344.0 188.9 344.9 190.0Q345.9 191.0 345.9 193.1L345.9 193.1L345.9 193.7L340.1 193.7Q340.2 194.9 340.9 195.7Q341.6 196.5 342.6 196.5L342.6 196.5Q343.4 196.5 343.9 196.1Q344.5 195.8 344.9 195.3L344.9 195.3L345.8 196.0Q344.7 197.6 342.6 197.6ZM342.4 190.1L342.4 190.1Q341.5 190.1 340.9 190.7Q340.3 191.3 340.2 192.5L340.2 192.5L344.4 192.5L344.4 192.4Q344.4 191.3 343.8 190.7Q343.3 190.1 342.4 190.1ZM347.5 189.0L348.9 189.0L348.9 190.1Q349.9 188.9 351.5 188.9L351.5 188.9Q354.2 188.9 354.2 191.9L354.2 191.9L354.2 197.5L352.7 197.5L352.7 191.9Q352.7 191.0 352.3 190.5Q351.9 190.1 351.0 190.1L351.0 190.1Q350.3 190.1 349.8 190.5Q349.3 190.9 349.0 191.5L349.0 191.5L349.0 197.5L347.5 197.5L347.5 189.0ZM356.9 187.0L358.3 187.0L358.3 189.0L359.9 189.0L359.9 190.1L358.3 190.1L358.3 195.4Q358.3 195.9 358.5 196.2Q358.7 196.4 359.3 196.4L359.3 196.4Q359.5 196.4 359.9 196.3L359.9 196.3L359.9 197.5Q359.4 197.6 358.8 197.6L358.8 197.6Q357.9 197.6 357.4 197.1Q356.9 196.5 356.9 195.4L356.9 195.4L356.9 190.1L355.3 190.1L355.3 189.0L356.9 189.0L356.9 187.0ZM361.0 193.3L361.0 193.2Q361.0 191.9 361.5 190.9Q362.0 190.0 362.9 189.4Q363.8 188.9 364.9 188.9L364.9 188.9Q366.6 188.9 367.7 190.1Q368.7 191.3 368.7 193.2L368.7 193.2L368.7 193.4Q368.7 194.6 368.3 195.6Q367.8 196.5 366.9 197.1Q366.0 197.6 364.9 197.6L364.9 197.6Q363.2 197.6 362.1 196.4Q361.0 195.2 361.0 193.3L361.0 193.3ZM362.5 193.4L362.5 193.4Q362.5 194.8 363.2 195.6Q363.8 196.5 364.9 196.5L364.9 196.5Q366 196.5 366.6 195.6Q367.3 194.7 367.3 193.2L367.3 193.2Q367.3 191.8 366.6 190.9Q366.0 190.1 364.9 190.1L364.9 190.1Q363.8 190.1 363.2 190.9Q362.5 191.8 362.5 193.4Z "/><defs><clipPath id="satori_bc-id-0-8-1"><path x="328" y="201" width="132" height="52" d="M354,201 h80 a26,26 0 0 1 26,26 v0 a26,26 0 0 1 -26,26 h-80 a26,26 0 0 1 -26,-26 v0 a26,26 0 0 1 26,-26"/></clipPath></defs><path x="328" y="201" width="132" height="52" fill="#2A2734" d="M354,201 h80 a26,26 0 0 1 26,26 v0 a26,26 0 0 1 -26,26 h-80 a26,26 0 0 1 -26,-26 v0 a26,26 0 0 1 26,-26"/><path width="132" height="52" clip-path="url(#satori_bc-id-0-8-1)" fill="none" stroke="#EEEBE3" stroke-width="4" d="M335.615,208.615 A26,26 0 0 1 354,201 h80 a26,26 0 0 1 26,26 v0 a26,26 0 0 1 -26,26 h-80 a26,26 0 0 1 -26,-26 v0 A26,26 0 0 1 335.615,208.615"/><path x="338" y="211" width="32" height="32" fill="#FAC863" d="M354,211 h0 a16,16 0 0 1 16,16 v0 a16,16 0 0 1 -16,16 h0 a16,16 0 0 1 -16,-16 v0 a16,16 0 0 1 16,-16"/><path x="378" y="211" width="32" height="32" fill="#C594C5" d="M394,211 h0 a16,16 0 0 1 16,16 v0 a16,16 0 0 1 -16,16 h0 a16,16 0 0 1 -16,-16 v0 a16,16 0 0 1 16,-16"/><path x="418" y="211" width="32" height="32" fill="#EEEBE3" d="M434,211 h0 a16,16 0 0 1 16,16 v0 a16,16 0 0 1 -16,16 h0 a16,16 0 0 1 -16,-16 v0 a16,16 0 0 1 16,-16"/><path fill="#888" d="M58.1 277.4L58.1 278.2Q58.1 279.8 57.5 281.1Q56.9 282.3 55.9 283.0Q54.9 283.6 53.5 283.6L53.5 283.6Q52.2 283.6 51.1 283.0Q50.1 282.3 49.5 281.1Q48.9 279.9 48.9 278.3L48.9 278.3L48.9 277.4Q48.9 275.8 49.5 274.5Q50.1 273.3 51.1 272.6Q52.1 272.0 53.5 272.0L53.5 272.0Q54.9 272.0 55.9 272.6Q56.9 273.3 57.5 274.5Q58.1 275.8 58.1 277.4L58.1 277.4ZM56.6 278.3L56.6 277.4Q56.6 275.4 55.8 274.3Q55.0 273.2 53.5 273.2L53.5 273.2Q52.1 273.2 51.3 274.3Q50.4 275.4 50.4 277.3L50.4 277.3L50.4 278.2Q50.4 280.1 51.2 281.2Q52.1 282.4 53.5 282.4L53.5 282.4Q55.0 282.4 55.8 281.3Q56.6 280.2 56.6 278.3L56.6 278.3ZM64.2 275.0L64.2 276.3Q63.9 276.3 63.5 276.3L63.5 276.3Q62.0 276.3 61.5 277.5L61.5 277.5L61.5 283.5L60.1 283.5L60.1 275.0L61.5 275.0L61.5 276.0Q62.2 274.9 63.5 274.9L63.5 274.9Q64.0 274.9 64.2 275.0L64.2 275.0ZM71.1 275.0L73.1 281.5L74.8 275.0L76.2 275.0L73.7 283.5L72.6 283.5L70.5 277.1L68.5 283.5L67.3 283.5L64.9 275.0L66.3 275.0L68.0 281.4L70.0 275.0L71.1 275.0ZM81.2 283.6L81.2 283.6Q79.5 283.6 78.4 282.5Q77.3 281.4 77.3 279.5L77.3 279.5L77.3 279.2Q77.3 278.0 77.8 277.0Q78.3 276.0 79.1 275.4Q80.0 274.9 81.0 274.9L81.0 274.9Q82.6 274.9 83.6 276.0Q84.5 277.0 84.5 279.1L84.5 279.1L84.5 279.7L78.7 279.7Q78.8 280.9 79.5 281.7Q80.2 282.5 81.3 282.5L81.3 282.5Q82.0 282.5 82.5 282.1Q83.1 281.8 83.5 281.3L83.5 281.3L84.4 282.0Q83.3 283.6 81.2 283.6ZM81.0 276.1L81.0 276.1Q80.1 276.1 79.5 276.7Q78.9 277.3 78.8 278.5L78.8 278.5L83.0 278.5L83.0 278.4Q83.0 277.3 82.4 276.7Q81.9 276.1 81.0 276.1ZM87.7 271.5L87.7 283.5L86.3 283.5L86.3 271.5L87.7 271.5ZM91.6 271.5L91.6 283.5L90.1 283.5L90.1 271.5L91.6 271.5Z "/><defs><clipPath id="satori_bc-id-0-9-1"><path x="48" y="287" width="132" height="52" d="M74,287 h80 a26,26 0 0 1 26,26 v0 a26,26 0 0 1 -26,26 h-80 a26,26 0 0 1 -26,-26 v0 a26,26 0 0 1 26,-26"/></clipPath></defs><path x="48" y="287" width="132" height="52" fill="#1A1A1A" d="M74,287 h80 a26,26 0 0 1 26,26 v0 a26,26 0 0 1 -26,26 h-80 a26,26 0 0 1 -26,-26 v0 a26,26 0 0 1 26,-26"/><path width="132" height="52" clip-path="url(#satori_bc-id-0-9-1)" fill="none" stroke="#F5F5F5" stroke-width="4" d="M55.614999999999995,294.615 A26,26 0 0 1 74,287 h80 a26,26 0 0 1 26,26 v0 a26,26 0 0 1 -26,26 h-80 a26,26 0 0 1 -26,-26 v0 A26,26 0 0 1 55.614999999999995,294.615"/><path x="58" y="297" width="32" height="32" fill="#D8D8D8" d="M74,297 h0 a16,16 0 0 1 16,16 v0 a16,16 0 0 1 -16,16 h0 a16,16 0 0 1 -16,-16 v0 a16,16 0 0 1 16,-16"/><path x="98" y="297" width="32" height="32" fill="#E74C3C" d="M114,297 h0 a16,16 0 0 1 16,16 v0 a16,16 0 0 1 -16,16 h0 a16,16 0 0 1 -16,-16 v0 a16,16 0 0 1 16,-16"/><path x="138" y="297" width="32" height="32" fill="#F5F5F5" d="M154,297 h0 a16,16 0 0 1 16,16 v0 a16,16 0 0 1 -16,16 h0 a16,16 0 0 1 -16,-16 v0 a16,16 0 0 1 16,-16"/><path fill="#888" d="M196.0 283.5L193.5 278.9L190.8 278.9L190.8 283.5L189.3 283.5L189.3 272.1L193.1 272.1Q195 272.1 196.0 273.0Q197.1 273.9 197.1 275.5L197.1 275.5Q197.1 276.6 196.5 277.4Q195.9 278.2 194.9 278.6L194.9 278.6L197.6 283.4L197.6 283.5L196.0 283.5ZM190.8 273.3L190.8 277.7L193.1 277.7Q194.2 277.7 194.9 277.1Q195.6 276.5 195.6 275.5L195.6 275.5Q195.6 274.5 194.9 273.9Q194.3 273.4 193.1 273.3L193.1 273.3L190.8 273.3ZM198.6 279.3L198.6 279.2Q198.6 277.9 199.1 276.9Q199.5 276.0 200.4 275.4Q201.3 274.9 202.4 274.9L202.4 274.9Q204.1 274.9 205.2 276.1Q206.3 277.3 206.3 279.2L206.3 279.2L206.3 279.4Q206.3 280.6 205.8 281.6Q205.3 282.5 204.4 283.1Q203.6 283.6 202.4 283.6L202.4 283.6Q200.7 283.6 199.6 282.4Q198.6 281.2 198.6 279.3L198.6 279.3ZM200.0 279.4L200.0 279.4Q200.0 280.8 200.7 281.6Q201.3 282.5 202.4 282.5L202.4 282.5Q203.5 282.5 204.2 281.6Q204.8 280.7 204.8 279.2L204.8 279.2Q204.8 277.8 204.2 276.9Q203.5 276.1 202.4 276.1L202.4 276.1Q201.3 276.1 200.7 276.9Q200.0 277.8 200.0 279.4ZM208.6 275.0L210.7 281.4L212.7 275.0L214.2 275.0L210.8 284.8Q210.0 286.9 208.3 286.9L208.3 286.9L208.1 286.9L207.5 286.8L207.5 285.6L207.9 285.6Q208.6 285.6 209.1 285.3Q209.5 285.0 209.7 284.2L209.7 284.2L210.0 283.4L207.0 275.0L208.6 275.0ZM222.1 283.5L220.6 283.5Q220.5 283.2 220.4 282.6L220.4 282.6Q219.4 283.6 218.0 283.6L218.0 283.6Q216.8 283.6 216.0 282.9Q215.2 282.2 215.2 281.1L215.2 281.1Q215.2 279.8 216.2 279.1Q217.2 278.4 219.0 278.4L219.0 278.4L220.4 278.4L220.4 277.7Q220.4 276.9 219.9 276.5Q219.5 276.0 218.6 276.0L218.6 276.0Q217.8 276.0 217.3 276.4Q216.8 276.8 216.8 277.4L216.8 277.4L215.3 277.4Q215.3 276.7 215.8 276.2Q216.2 275.6 217.0 275.2Q217.8 274.9 218.7 274.9L218.7 274.9Q220.2 274.9 221.0 275.6Q221.8 276.3 221.8 277.6L221.8 277.6L221.8 281.5Q221.8 282.7 222.1 283.4L222.1 283.4L222.1 283.5ZM218.2 282.4L218.2 282.4Q218.9 282.4 219.5 282.0Q220.1 281.7 220.4 281.1L220.4 281.1L220.4 279.4L219.3 279.4Q216.6 279.4 216.6 280.9L216.6 280.9Q216.6 281.6 217.1 282.0Q217.5 282.4 218.2 282.4ZM225.7 271.5L225.7 283.5L224.2 283.5L224.2 271.5L225.7 271.5Z "/><defs><clipPath id="satori_bc-id-0-10-1"><path x="188" y="287" width="132" height="52" d="M214,287 h80 a26,26 0 0 1 26,26 v0 a26,26 0 0 1 -26,26 h-80 a26,26 0 0 1 -26,-26 v0 a26,26 0 0 1 26,-26"/></clipPath></defs><path x="188" y="287" width="132" height="52" fill="#100E23" d="M214,287 h80 a26,26 0 0 1 26,26 v0 a26,26 0 0 1 -26,26 h-80 a26,26 0 0 1 -26,-26 v0 a26,26 0 0 1 26,-26"/><path width="132" height="52" clip-path="url(#satori_bc-id-0-10-1)" fill="none" stroke="#D8DDE8" stroke-width="4" d="M195.615,294.615 A26,26 0 0 1 214,287 h80 a26,26 0 0 1 26,26 v0 a26,26 0 0 1 -26,26 h-80 a26,26 0 0 1 -26,-26 v0 A26,26 0 0 1 195.615,294.615"/><path x="198" y="297" width="32" height="32" fill="#EE64AC" d="M214,297 h0 a16,16 0 0 1 16,16 v0 a16,16 0 0 1 -16,16 h0 a16,16 0 0 1 -16,-16 v0 a16,16 0 0 1 16,-16"/><path x="238" y="297" width="32" height="32" fill="#A37ACC" d="M254,297 h0 a16,16 0 0 1 16,16 v0 a16,16 0 0 1 -16,16 h0 a16,16 0 0 1 -16,-16 v0 a16,16 0 0 1 16,-16"/><path x="278" y="297" width="32" height="32" fill="#D8DDE8" d="M294,297 h0 a16,16 0 0 1 16,16 v0 a16,16 0 0 1 -16,16 h0 a16,16 0 0 1 -16,-16 v0 a16,16 0 0 1 16,-16"/><path fill="#888" d="M333.5 279.0L330.8 279.0L330.8 283.5L329.3 283.5L329.3 272.1L333.5 272.1Q335.4 272.1 336.4 273.1Q337.5 274.0 337.5 275.6L337.5 275.6Q337.5 277.2 336.5 278.1Q335.4 279.0 333.5 279.0L333.5 279.0ZM330.8 273.3L330.8 277.8L333.5 277.8Q334.7 277.8 335.4 277.2Q336 276.7 336 275.6L336 275.6Q336 274.6 335.4 274.0Q334.7 273.4 333.6 273.3L333.6 273.3L330.8 273.3ZM340.8 275.0L340.8 283.5L339.3 283.5L339.3 275.0L340.8 275.0ZM339.2 272.8L339.2 272.8Q339.2 272.4 339.4 272.2Q339.6 272.0 340.0 272.0Q340.5 272.0 340.7 272.2Q340.9 272.4 340.9 272.8Q340.9 273.1 340.7 273.4Q340.5 273.6 340.0 273.6Q339.6 273.6 339.4 273.4Q339.2 273.1 339.2 272.8ZM343.1 275.0L344.4 275.0L344.5 276.1Q345.5 274.9 347.0 274.9L347.0 274.9Q349.7 274.9 349.7 277.9L349.7 277.9L349.7 283.5L348.3 283.5L348.3 277.9Q348.3 277.0 347.9 276.5Q347.4 276.1 346.6 276.1L346.6 276.1Q345.9 276.1 345.3 276.5Q344.8 276.9 344.5 277.5L344.5 277.5L344.5 283.5L343.1 283.5L343.1 275.0ZM355.4 283.6L355.4 283.6Q353.7 283.6 352.6 282.5Q351.5 281.4 351.5 279.5L351.5 279.5L351.5 279.2Q351.5 278.0 352.0 277.0Q352.5 276.0 353.4 275.4Q354.2 274.9 355.2 274.9L355.2 274.9Q356.9 274.9 357.8 276.0Q358.7 277.0 358.7 279.1L358.7 279.1L358.7 279.7L353.0 279.7Q353.0 280.9 353.7 281.7Q354.4 282.5 355.5 282.5L355.5 282.5Q356.3 282.5 356.8 282.1Q357.3 281.8 357.7 281.3L357.7 281.3L358.6 282.0Q357.5 283.6 355.4 283.6ZM355.2 276.1L355.2 276.1Q354.4 276.1 353.8 276.7Q353.2 277.3 353.0 278.5L353.0 278.5L357.3 278.5L357.3 278.4Q357.2 277.3 356.7 276.7Q356.1 276.1 355.2 276.1Z "/><defs><clipPath id="satori_bc-id-0-11-1"><path x="328" y="287" width="132" height="52" d="M354,287 h80 a26,26 0 0 1 26,26 v0 a26,26 0 0 1 -26,26 h-80 a26,26 0 0 1 -26,-26 v0 a26,26 0 0 1 26,-26"/></clipPath></defs><path x="328" y="287" width="132" height="52" fill="#011627" d="M354,287 h80 a26,26 0 0 1 26,26 v0 a26,26 0 0 1 -26,26 h-80 a26,26 0 0 1 -26,-26 v0 a26,26 0 0 1 26,-26"/><path width="132" height="52" clip-path="url(#satori_bc-id-0-11-1)" fill="none" stroke="#D6DEEB" stroke-width="4" d="M335.615,294.615 A26,26 0 0 1 354,287 h80 a26,26 0 0 1 26,26 v0 a26,26 0 0 1 -26,26 h-80 a26,26 0 0 1 -26,-26 v0 A26,26 0 0 1 335.615,294.615"/><path x="338" y="297" width="32" height="32" fill="#82AAFF" d="M354,297 h0 a16,16 0 0 1 16,16 v0 a16,16 0 0 1 -16,16 h0 a16,16 0 0 1 -16,-16 v0 a16,16 0 0 1 16,-16"/><path x="378" y="297" width="32" height="32" fill="#22DA6E" d="M394,297 h0 a16,16 0 0 1 16,16 v0 a16,16 0 0 1 -16,16 h0 a16,16 0 0 1 -16,-16 v0 a16,16 0 0 1 16,-16"/><path x="418" y="297" width="32" height="32" fill="#D6DEEB" d="M434,297 h0 a16,16 0 0 1 16,16 v0 a16,16 0 0 1 -16,16 h0 a16,16 0 0 1 -16,-16 v0 a16,16 0 0 1 16,-16"/><path fill="#888" d="M56.7 370.5L55.6 367.5L50.8 367.5L49.8 370.5L48.2 370.5L52.6 359.1L53.9 359.1L58.2 370.5L56.7 370.5ZM53.2 361.0L51.3 366.3L55.2 366.3L53.2 361.0ZM61.1 358.5L61.1 370.5L59.7 370.5L59.7 358.5L61.1 358.5ZM65.0 362.0L65.0 370.5L63.5 370.5L63.5 362.0L65.0 362.0ZM63.4 359.8L63.4 359.8Q63.4 359.4 63.6 359.2Q63.9 359.0 64.3 359.0Q64.7 359.0 64.9 359.2Q65.1 359.4 65.1 359.8Q65.1 360.1 64.9 360.4Q64.7 360.6 64.3 360.6Q63.9 360.6 63.6 360.4Q63.4 360.1 63.4 359.8ZM70.8 370.6L70.8 370.6Q69.1 370.6 68.0 369.5Q66.9 368.4 66.9 366.5L66.9 366.5L66.9 366.2Q66.9 365.0 67.4 364.0Q67.9 363.0 68.8 362.4Q69.6 361.9 70.6 361.9L70.6 361.9Q72.3 361.9 73.2 363.0Q74.1 364.0 74.1 366.1L74.1 366.1L74.1 366.7L68.4 366.7Q68.4 367.9 69.1 368.7Q69.8 369.5 70.9 369.5L70.9 369.5Q71.6 369.5 72.2 369.1Q72.7 368.8 73.1 368.3L73.1 368.3L74.0 369.0Q72.9 370.6 70.8 370.6ZM70.6 363.1L70.6 363.1Q69.8 363.1 69.2 363.7Q68.6 364.3 68.4 365.5L68.4 365.5L72.7 365.5L72.7 365.4Q72.6 364.3 72.1 363.7Q71.5 363.1 70.6 363.1ZM75.8 362.0L77.1 362.0L77.2 363.1Q78.2 361.9 79.7 361.9L79.7 361.9Q82.4 361.9 82.4 364.9L82.4 364.9L82.4 370.5L81.0 370.5L81.0 364.9Q81.0 364.0 80.6 363.5Q80.1 363.1 79.3 363.1L79.3 363.1Q78.6 363.1 78.0 363.5Q77.5 363.9 77.2 364.5L77.2 364.5L77.2 370.5L75.8 370.5L75.8 362.0Z "/><defs><clipPath id="satori_bc-id-0-12-1"><path x="48" y="374" width="132" height="52" d="M74,374 h80 a26,26 0 0 1 26,26 v0 a26,26 0 0 1 -26,26 h-80 a26,26 0 0 1 -26,-26 v0 a26,26 0 0 1 26,-26"/></clipPath></defs><path x="48" y="374" width="132" height="52" fill="#132738" d="M74,374 h80 a26,26 0 0 1 26,26 v0 a26,26 0 0 1 -26,26 h-80 a26,26 0 0 1 -26,-26 v0 a26,26 0 0 1 26,-26"/><path width="132" height="52" clip-path="url(#satori_bc-id-0-12-1)" fill="none" stroke="#CDD2E9" stroke-width="4" d="M55.614999999999995,381.615 A26,26 0 0 1 74,374 h80 a26,26 0 0 1 26,26 v0 a26,26 0 0 1 -26,26 h-80 a26,26 0 0 1 -26,-26 v0 A26,26 0 0 1 55.614999999999995,381.615"/><path x="58" y="384" width="32" height="32" fill="#10A778" d="M74,384 h0 a16,16 0 0 1 16,16 v0 a16,16 0 0 1 -16,16 h0 a16,16 0 0 1 -16,-16 v0 a16,16 0 0 1 16,-16"/><path x="98" y="384" width="32" height="32" fill="#6FC2EF" d="M114,384 h0 a16,16 0 0 1 16,16 v0 a16,16 0 0 1 -16,16 h0 a16,16 0 0 1 -16,-16 v0 a16,16 0 0 1 16,-16"/><path x="138" y="384" width="32" height="32" fill="#CDD2E9" d="M154,384 h0 a16,16 0 0 1 16,16 v0 a16,16 0 0 1 -16,16 h0 a16,16 0 0 1 -16,-16 v0 a16,16 0 0 1 16,-16"/><path fill="#888" d="M196.7 370.5L195.6 367.5L190.8 367.5L189.8 370.5L188.2 370.5L192.6 359.1L193.9 359.1L198.2 370.5L196.7 370.5ZM193.2 361.0L191.3 366.3L195.2 366.3L193.2 361.0ZM199.5 362.0L200.9 362.0L200.9 363.1Q201.9 361.9 203.5 361.9L203.5 361.9Q206.2 361.9 206.2 364.9L206.2 364.9L206.2 370.5L204.7 370.5L204.7 364.9Q204.7 364.0 204.3 363.5Q203.9 363.1 203.0 363.1L203.0 363.1Q202.3 363.1 201.8 363.5Q201.3 363.9 201.0 364.5L201.0 364.5L201.0 370.5L199.5 370.5L199.5 362.0ZM215.1 370.5L213.6 370.5Q213.5 370.2 213.4 369.6L213.4 369.6Q212.4 370.6 211.0 370.6L211.0 370.6Q209.7 370.6 208.9 369.9Q208.1 369.2 208.1 368.1L208.1 368.1Q208.1 366.8 209.1 366.1Q210.1 365.4 211.9 365.4L211.9 365.4L213.4 365.4L213.4 364.7Q213.4 363.9 212.9 363.5Q212.4 363.0 211.6 363.0L211.6 363.0Q210.8 363.0 210.3 363.4Q209.7 363.8 209.7 364.4L209.7 364.4L208.3 364.4Q208.3 363.7 208.7 363.2Q209.2 362.6 210.0 362.2Q210.7 361.9 211.6 361.9L211.6 361.9Q213.1 361.9 213.9 362.6Q214.8 363.3 214.8 364.6L214.8 364.6L214.8 368.5Q214.8 369.7 215.1 370.4L215.1 370.4L215.1 370.5ZM211.2 369.4L211.2 369.4Q211.9 369.4 212.5 369.0Q213.1 368.7 213.4 368.1L213.4 368.1L213.4 366.4L212.2 366.4Q209.6 366.4 209.6 367.9L209.6 367.9Q209.6 368.6 210.0 369.0Q210.5 369.4 211.2 369.4ZM221.1 362.0L221.1 363.3Q220.8 363.3 220.4 363.3L220.4 363.3Q219.0 363.3 218.5 364.5L218.5 364.5L218.5 370.5L217.1 370.5L217.1 362.0L218.5 362.0L218.5 363.0Q219.2 361.9 220.5 361.9L220.5 361.9Q220.9 361.9 221.1 362.0L221.1 362.0ZM225.7 369.5L225.7 369.5Q226.5 369.5 227.1 369.0Q227.6 368.5 227.7 367.8L227.7 367.8L229.1 367.8Q229.0 368.5 228.6 369.2Q228.1 369.9 227.3 370.2Q226.6 370.6 225.7 370.6L225.7 370.6Q224.0 370.6 223.0 369.5Q222.0 368.3 222.0 366.3L222.0 366.3L222.0 366.1Q222.0 364.9 222.4 363.9Q222.9 362.9 223.7 362.4Q224.6 361.9 225.7 361.9L225.7 361.9Q227.1 361.9 228.1 362.7Q229.0 363.6 229.1 364.9L229.1 364.9L227.7 364.9Q227.6 364.1 227.1 363.6Q226.5 363.1 225.7 363.1L225.7 363.1Q224.6 363.1 224.0 363.9Q223.4 364.6 223.4 366.1L223.4 366.1L223.4 366.4Q223.4 367.9 224 368.7Q224.6 369.5 225.7 369.5ZM232.1 358.5L232.1 363.1Q233.1 361.9 234.6 361.9L234.6 361.9Q237.3 361.9 237.4 364.9L237.4 364.9L237.4 370.5L235.9 370.5L235.9 364.9Q235.9 364.0 235.5 363.5Q235.1 363.1 234.2 363.1L234.2 363.1Q233.5 363.1 233.0 363.5Q232.4 363.9 232.1 364.5L232.1 364.5L232.1 370.5L230.7 370.5L230.7 358.5L232.1 358.5ZM240.2 362.0L242.3 368.4L244.3 362.0L245.8 362.0L242.4 371.8Q241.6 373.9 239.9 373.9L239.9 373.9L239.6 373.9L239.1 373.8L239.1 372.6L239.5 372.6Q240.2 372.6 240.6 372.3Q241.0 372.0 241.3 371.2L241.3 371.2L241.6 370.4L238.6 362.0L240.2 362.0Z "/><defs><clipPath id="satori_bc-id-0-13-1"><path x="188" y="374" width="132" height="52" d="M214,374 h80 a26,26 0 0 1 26,26 v0 a26,26 0 0 1 -26,26 h-80 a26,26 0 0 1 -26,-26 v0 a26,26 0 0 1 26,-26"/></clipPath></defs><path x="188" y="374" width="132" height="52" fill="#282A36" d="M214,374 h80 a26,26 0 0 1 26,26 v0 a26,26 0 0 1 -26,26 h-80 a26,26 0 0 1 -26,-26 v0 a26,26 0 0 1 26,-26"/><path width="132" height="52" clip-path="url(#satori_bc-id-0-13-1)" fill="none" stroke="#F8F8F2" stroke-width="4" d="M195.615,381.615 A26,26 0 0 1 214,374 h80 a26,26 0 0 1 26,26 v0 a26,26 0 0 1 -26,26 h-80 a26,26 0 0 1 -26,-26 v0 A26,26 0 0 1 195.615,381.615"/><path x="198" y="384" width="32" height="32" fill="#FF5555" d="M214,384 h0 a16,16 0 0 1 16,16 v0 a16,16 0 0 1 -16,16 h0 a16,16 0 0 1 -16,-16 v0 a16,16 0 0 1 16,-16"/><path x="238" y="384" width="32" height="32" fill="#FF79C6" d="M254,384 h0 a16,16 0 0 1 16,16 v0 a16,16 0 0 1 -16,16 h0 a16,16 0 0 1 -16,-16 v0 a16,16 0 0 1 16,-16"/><path x="278" y="384" width="32" height="32" fill="#F8F8F2" d="M294,384 h0 a16,16 0 0 1 16,16 v0 a16,16 0 0 1 -16,16 h0 a16,16 0 0 1 -16,-16 v0 a16,16 0 0 1 16,-16"/><path fill="#888" d="M336.7 370.5L335.6 367.5L330.8 367.5L329.8 370.5L328.2 370.5L332.6 359.1L333.9 359.1L338.2 370.5L336.7 370.5ZM333.2 361.0L331.3 366.3L335.2 366.3L333.2 361.0ZM341.1 358.5L341.1 370.5L339.7 370.5L339.7 358.5L341.1 358.5ZM350.6 366.2L350.6 366.4Q350.6 368.3 349.7 369.5Q348.8 370.6 347.3 370.6L347.3 370.6Q345.7 370.6 344.9 369.7L344.9 369.7L344.9 373.7L343.4 373.7L343.4 362.0L344.7 362.0L344.8 363.0Q345.7 361.9 347.3 361.9L347.3 361.9Q348.8 361.9 349.7 363.0Q350.6 364.2 350.6 366.2L350.6 366.2ZM349.1 366.2L349.1 366.2Q349.1 364.8 348.5 363.9Q347.9 363.1 346.8 363.1L346.8 363.1Q345.5 363.1 344.9 364.3L344.9 364.3L344.9 368.3Q345.5 369.5 346.8 369.5L346.8 369.5Q347.9 369.5 348.5 368.6Q349.1 367.8 349.1 366.2ZM354.0 362.0L354.0 370.5L352.5 370.5L352.5 362.0L354.0 362.0ZM352.4 359.8L352.4 359.8Q352.4 359.4 352.6 359.2Q352.8 359.0 353.3 359.0Q353.7 359.0 353.9 359.2Q354.1 359.4 354.1 359.8Q354.1 360.1 353.9 360.4Q353.7 360.6 353.3 360.6Q352.8 360.6 352.6 360.4Q352.4 360.1 352.4 359.8ZM356.3 362.0L357.6 362.0L357.7 363.1Q358.7 361.9 360.2 361.9L360.2 361.9Q362.9 361.9 362.9 364.9L362.9 364.9L362.9 370.5L361.5 370.5L361.5 364.9Q361.5 364.0 361.1 363.5Q360.6 363.1 359.8 363.1L359.8 363.1Q359.1 363.1 358.5 363.5Q358.0 363.9 357.7 364.5L357.7 364.5L357.7 370.5L356.3 370.5L356.3 362.0ZM368.6 370.6L368.6 370.6Q366.9 370.6 365.8 369.5Q364.7 368.4 364.7 366.5L364.7 366.5L364.7 366.2Q364.7 365.0 365.2 364.0Q365.7 363.0 366.6 362.4Q367.4 361.9 368.4 361.9L368.4 361.9Q370.1 361.9 371.0 363.0Q371.9 364.0 371.9 366.1L371.9 366.1L371.9 366.7L366.2 366.7Q366.2 367.9 366.9 368.7Q367.6 369.5 368.7 369.5L368.7 369.5Q369.5 369.5 370.0 369.1Q370.5 368.8 370.9 368.3L370.9 368.3L371.8 369.0Q370.7 370.6 368.6 370.6ZM368.4 363.1L368.4 363.1Q367.6 363.1 367.0 363.7Q366.4 364.3 366.2 365.5L366.2 365.5L370.5 365.5L370.5 365.4Q370.4 364.3 369.9 363.7Q369.3 363.1 368.4 363.1Z "/><defs><clipPath id="satori_bc-id-0-14-1"><path x="328" y="374" width="132" height="52" d="M354,374 h80 a26,26 0 0 1 26,26 v0 a26,26 0 0 1 -26,26 h-80 a26,26 0 0 1 -26,-26 v0 a26,26 0 0 1 26,-26"/></clipPath></defs><path x="328" y="374" width="132" height="52" fill="#2E3440" d="M354,374 h80 a26,26 0 0 1 26,26 v0 a26,26 0 0 1 -26,26 h-80 a26,26 0 0 1 -26,-26 v0 a26,26 0 0 1 26,-26"/><path width="132" height="52" clip-path="url(#satori_bc-id-0-14-1)" fill="none" stroke="#D8DEE9" stroke-width="4" d="M335.615,381.615 A26,26 0 0 1 354,374 h80 a26,26 0 0 1 26,26 v0 a26,26 0 0 1 -26,26 h-80 a26,26 0 0 1 -26,-26 v0 A26,26 0 0 1 335.615,381.615"/><path x="338" y="384" width="32" height="32" fill="#88C0D0" d="M354,384 h0 a16,16 0 0 1 16,16 v0 a16,16 0 0 1 -16,16 h0 a16,16 0 0 1 -16,-16 v0 a16,16 0 0 1 16,-16"/><path x="378" y="384" width="32" height="32" fill="#81A1C1" d="M394,384 h0 a16,16 0 0 1 16,16 v0 a16,16 0 0 1 -16,16 h0 a16,16 0 0 1 -16,-16 v0 a16,16 0 0 1 16,-16"/><path x="418" y="384" width="32" height="32" fill="#D8DEE9" d="M434,384 h0 a16,16 0 0 1 16,16 v0 a16,16 0 0 1 -16,16 h0 a16,16 0 0 1 -16,-16 v0 a16,16 0 0 1 16,-16"/><path fill="#888" d="M56.2 453.9L57.7 453.9Q57.5 455.7 56.4 456.7Q55.2 457.6 53.4 457.6L53.4 457.6Q51.4 457.6 50.1 456.2Q48.9 454.7 48.9 452.3L48.9 452.3L48.9 451.2Q48.9 449.6 49.5 448.4Q50.1 447.2 51.1 446.6Q52.1 446.0 53.5 446.0L53.5 446.0Q55.3 446.0 56.4 447.0Q57.5 448.0 57.7 449.8L57.7 449.8L56.2 449.8Q56.0 448.4 55.3 447.8Q54.7 447.2 53.5 447.2L53.5 447.2Q52.1 447.2 51.3 448.2Q50.4 449.3 50.4 451.3L50.4 451.3L50.4 452.4Q50.4 454.2 51.2 455.3Q52.0 456.4 53.4 456.4L53.4 456.4Q54.6 456.4 55.3 455.8Q56.0 455.3 56.2 453.9L56.2 453.9ZM66.2 457.5L64.7 457.5Q64.6 457.2 64.5 456.6L64.5 456.6Q63.5 457.6 62.1 457.6L62.1 457.6Q60.9 457.6 60.1 456.9Q59.3 456.2 59.3 455.1L59.3 455.1Q59.3 453.8 60.3 453.1Q61.3 452.4 63.1 452.4L63.1 452.4L64.5 452.4L64.5 451.7Q64.5 450.9 64.0 450.5Q63.6 450.0 62.7 450.0L62.7 450.0Q61.9 450.0 61.4 450.4Q60.9 450.8 60.9 451.4L60.9 451.4L59.4 451.4Q59.4 450.7 59.9 450.2Q60.3 449.6 61.1 449.2Q61.9 448.9 62.8 448.9L62.8 448.9Q64.3 448.9 65.1 449.6Q65.9 450.3 65.9 451.6L65.9 451.6L65.9 455.5Q65.9 456.7 66.2 457.4L66.2 457.4L66.2 457.5ZM62.3 456.4L62.3 456.4Q63.0 456.4 63.6 456.0Q64.2 455.7 64.5 455.1L64.5 455.1L64.5 453.4L63.4 453.4Q60.7 453.4 60.7 454.9L60.7 454.9Q60.7 455.6 61.2 456.0Q61.6 456.4 62.3 456.4ZM72.3 449.0L72.3 450.3Q72.0 450.3 71.6 450.3L71.6 450.3Q70.2 450.3 69.7 451.5L69.7 451.5L69.7 457.5L68.2 457.5L68.2 449.0L69.6 449.0L69.6 450.0Q70.4 448.9 71.7 448.9L71.7 448.9Q72.1 448.9 72.3 449.0L72.3 449.0ZM80.8 453.2L80.8 453.4Q80.8 455.3 79.9 456.5Q79 457.6 77.5 457.6L77.5 457.6Q75.9 457.6 75.0 456.5L75.0 456.5L75.0 457.5L73.6 457.5L73.6 445.5L75.1 445.5L75.1 450.0Q75.9 448.9 77.5 448.9Q79.0 448.9 79.9 450.0Q80.8 451.2 80.8 453.2L80.8 453.2ZM79.3 453.2L79.3 453.2Q79.3 451.7 78.8 450.9Q78.2 450.1 77.1 450.1L77.1 450.1Q75.7 450.1 75.1 451.4L75.1 451.4L75.1 455.1Q75.7 456.4 77.1 456.4L77.1 456.4Q78.2 456.4 78.8 455.6Q79.3 454.8 79.3 453.2ZM82.2 453.3L82.2 453.2Q82.2 451.9 82.7 450.9Q83.2 450.0 84.1 449.4Q84.9 448.9 86.1 448.9L86.1 448.9Q87.8 448.9 88.8 450.1Q89.9 451.3 89.9 453.2L89.9 453.2L89.9 453.4Q89.9 454.6 89.4 455.6Q89.0 456.5 88.1 457.1Q87.2 457.6 86.1 457.6L86.1 457.6Q84.4 457.6 83.3 456.4Q82.2 455.2 82.2 453.3L82.2 453.3ZM83.7 453.4L83.7 453.4Q83.7 454.8 84.3 455.6Q85.0 456.5 86.1 456.5L86.1 456.5Q87.2 456.5 87.8 455.6Q88.5 454.7 88.5 453.2L88.5 453.2Q88.5 451.8 87.8 450.9Q87.1 450.1 86.1 450.1L86.1 450.1Q85.0 450.1 84.3 450.9Q83.7 451.8 83.7 453.4ZM91.7 449.0L93.1 449.0L93.1 450.1Q94.1 448.9 95.7 448.9L95.7 448.9Q98.4 448.9 98.4 451.9L98.4 451.9L98.4 457.5L96.9 457.5L96.9 451.9Q96.9 451.0 96.5 450.5Q96.1 450.1 95.2 450.1L95.2 450.1Q94.5 450.1 94 450.5Q93.5 450.9 93.2 451.5L93.2 451.5L93.2 457.5L91.7 457.5L91.7 449.0Z "/><defs><clipPath id="satori_bc-id-0-15-1"><path x="48" y="461" width="132" height="52" d="M74,461 h80 a26,26 0 0 1 26,26 v0 a26,26 0 0 1 -26,26 h-80 a26,26 0 0 1 -26,-26 v0 a26,26 0 0 1 26,-26"/></clipPath></defs><path x="48" y="461" width="132" height="52" fill="#14191F" d="M74,461 h80 a26,26 0 0 1 26,26 v0 a26,26 0 0 1 -26,26 h-80 a26,26 0 0 1 -26,-26 v0 a26,26 0 0 1 26,-26"/><path width="132" height="52" clip-path="url(#satori_bc-id-0-15-1)" fill="none" stroke="#D9D7CE" stroke-width="4" d="M55.614999999999995,468.615 A26,26 0 0 1 74,461 h80 a26,26 0 0 1 26,26 v0 a26,26 0 0 1 -26,26 h-80 a26,26 0 0 1 -26,-26 v0 A26,26 0 0 1 55.614999999999995,468.615"/><path x="58" y="471" width="32" height="32" fill="#FF6059" d="M74,471 h0 a16,16 0 0 1 16,16 v0 a16,16 0 0 1 -16,16 h0 a16,16 0 0 1 -16,-16 v0 a16,16 0 0 1 16,-16"/><path x="98" y="471" width="32" height="32" fill="#FEB144" d="M114,471 h0 a16,16 0 0 1 16,16 v0 a16,16 0 0 1 -16,16 h0 a16,16 0 0 1 -16,-16 v0 a16,16 0 0 1 16,-16"/><path x="138" y="471" width="32" height="32" fill="#D9D7CE" d="M154,471 h0 a16,16 0 0 1 16,16 v0 a16,16 0 0 1 -16,16 h0 a16,16 0 0 1 -16,-16 v0 a16,16 0 0 1 16,-16"/><path fill="#888" d="M198.1 446.1L198.1 457.5L196.6 457.5L196.6 452.2L190.8 452.2L190.8 457.5L189.3 457.5L189.3 446.1L190.8 446.1L190.8 451.0L196.6 451.0L196.6 446.1L198.1 446.1ZM207.2 457.5L205.7 457.5Q205.6 457.2 205.5 456.6L205.5 456.6Q204.5 457.6 203.1 457.6L203.1 457.6Q201.9 457.6 201.1 456.9Q200.3 456.2 200.3 455.1L200.3 455.1Q200.3 453.8 201.3 453.1Q202.3 452.4 204.1 452.4L204.1 452.4L205.5 452.4L205.5 451.7Q205.5 450.9 205.0 450.5Q204.6 450.0 203.7 450.0L203.7 450.0Q202.9 450.0 202.4 450.4Q201.9 450.8 201.9 451.4L201.9 451.4L200.4 451.4Q200.4 450.7 200.9 450.2Q201.3 449.6 202.1 449.2Q202.9 448.9 203.8 448.9L203.8 448.9Q205.3 448.9 206.1 449.6Q206.9 450.3 206.9 451.6L206.9 451.6L206.9 455.5Q206.9 456.7 207.2 457.4L207.2 457.4L207.2 457.5ZM203.3 456.4L203.3 456.4Q204 456.4 204.6 456.0Q205.2 455.7 205.5 455.1L205.5 455.1L205.5 453.4L204.4 453.4Q201.7 453.4 201.7 454.9L201.7 454.9Q201.7 455.6 202.2 456.0Q202.6 456.4 203.3 456.4ZM210.8 445.5L210.8 457.5L209.3 457.5L209.3 445.5L210.8 445.5ZM214.7 445.5L214.7 457.5L213.2 457.5L213.2 445.5L214.7 445.5ZM216.6 453.3L216.6 453.2Q216.6 451.9 217.1 450.9Q217.6 450.0 218.4 449.4Q219.3 448.9 220.4 448.9L220.4 448.9Q222.1 448.9 223.2 450.1Q224.3 451.3 224.3 453.2L224.3 453.2L224.3 453.4Q224.3 454.6 223.8 455.6Q223.3 456.5 222.5 457.1Q221.6 457.6 220.4 457.6L220.4 457.6Q218.7 457.6 217.7 456.4Q216.6 455.2 216.6 453.3L216.6 453.3ZM218.0 453.4L218.0 453.4Q218.0 454.8 218.7 455.6Q219.3 456.5 220.4 456.5L220.4 456.5Q221.5 456.5 222.2 455.6Q222.8 454.7 222.8 453.2L222.8 453.2Q222.8 451.8 222.2 450.9Q221.5 450.1 220.4 450.1L220.4 450.1Q219.4 450.1 218.7 450.9Q218.0 451.8 218.0 453.4ZM231.6 449.0L233.6 455.5L235.2 449.0L236.6 449.0L234.2 457.5L233.0 457.5L231.0 451.1L229.0 457.5L227.8 457.5L225.3 449.0L226.8 449.0L228.4 455.4L230.4 449.0L231.6 449.0ZM241.6 457.6L241.6 457.6Q239.9 457.6 238.8 456.5Q237.8 455.4 237.8 453.5L237.8 453.5L237.8 453.2Q237.8 452.0 238.2 451.0Q238.7 450.0 239.6 449.4Q240.4 448.9 241.4 448.9L241.4 448.9Q243.1 448.9 244.0 450.0Q244.9 451.0 244.9 453.1L244.9 453.1L244.9 453.7L239.2 453.7Q239.2 454.9 239.9 455.7Q240.6 456.5 241.7 456.5L241.7 456.5Q242.5 456.5 243 456.1Q243.5 455.8 243.9 455.3L243.9 455.3L244.8 456.0Q243.8 457.6 241.6 457.6ZM241.4 450.1L241.4 450.1Q240.6 450.1 240.0 450.7Q239.4 451.3 239.2 452.5L239.2 452.5L243.5 452.5L243.5 452.4Q243.4 451.3 242.9 450.7Q242.4 450.1 241.4 450.1ZM250.1 457.6L250.1 457.6Q248.4 457.6 247.3 456.5Q246.2 455.4 246.2 453.5L246.2 453.5L246.2 453.2Q246.2 452.0 246.7 451.0Q247.2 450.0 248.1 449.4Q248.9 448.9 249.9 448.9L249.9 448.9Q251.6 448.9 252.5 450.0Q253.4 451.0 253.4 453.1L253.4 453.1L253.4 453.7L247.7 453.7Q247.7 454.9 248.4 455.7Q249.1 456.5 250.2 456.5L250.2 456.5Q250.9 456.5 251.5 456.1Q252.0 455.8 252.4 455.3L252.4 455.3L253.3 456.0Q252.2 457.6 250.1 457.6ZM249.9 450.1L249.9 450.1Q249.0 450.1 248.5 450.7Q247.9 451.3 247.7 452.5L247.7 452.5L252.0 452.5L252.0 452.4Q251.9 451.3 251.4 450.7Q250.8 450.1 249.9 450.1ZM255.1 449.0L256.4 449.0L256.5 450.1Q257.5 448.9 259.0 448.9L259.0 448.9Q261.7 448.9 261.7 451.9L261.7 451.9L261.7 457.5L260.3 457.5L260.3 451.9Q260.3 451.0 259.9 450.5Q259.4 450.1 258.6 450.1L258.6 450.1Q257.9 450.1 257.3 450.5Q256.8 450.9 256.5 451.5L256.5 451.5L256.5 457.5L255.1 457.5L255.1 449.0Z "/><defs><clipPath id="satori_bc-id-0-16-1"><path x="188" y="461" width="132" height="52" d="M214,461 h80 a26,26 0 0 1 26,26 v0 a26,26 0 0 1 -26,26 h-80 a26,26 0 0 1 -26,-26 v0 a26,26 0 0 1 26,-26"/></clipPath></defs><path x="188" y="461" width="132" height="52" fill="#282828" d="M214,461 h80 a26,26 0 0 1 26,26 v0 a26,26 0 0 1 -26,26 h-80 a26,26 0 0 1 -26,-26 v0 a26,26 0 0 1 26,-26"/><path width="132" height="52" clip-path="url(#satori_bc-id-0-16-1)" fill="none" stroke="#EBDBB2" stroke-width="4" d="M195.615,468.615 A26,26 0 0 1 214,461 h80 a26,26 0 0 1 26,26 v0 a26,26 0 0 1 -26,26 h-80 a26,26 0 0 1 -26,-26 v0 A26,26 0 0 1 195.615,468.615"/><path x="198" y="471" width="32" height="32" fill="#FB4934" d="M214,471 h0 a16,16 0 0 1 16,16 v0 a16,16 0 0 1 -16,16 h0 a16,16 0 0 1 -16,-16 v0 a16,16 0 0 1 16,-16"/><path x="238" y="471" width="32" height="32" fill="#B8BB26" d="M254,471 h0 a16,16 0 0 1 16,16 v0 a16,16 0 0 1 -16,16 h0 a16,16 0 0 1 -16,-16 v0 a16,16 0 0 1 16,-16"/><path x="278" y="471" width="32" height="32" fill="#EBDBB2" d="M294,471 h0 a16,16 0 0 1 16,16 v0 a16,16 0 0 1 -16,16 h0 a16,16 0 0 1 -16,-16 v0 a16,16 0 0 1 16,-16"/><path fill="#888" d="M336.2 453.9L337.7 453.9Q337.5 455.7 336.4 456.7Q335.2 457.6 333.4 457.6L333.4 457.6Q331.4 457.6 330.1 456.2Q328.9 454.7 328.9 452.3L328.9 452.3L328.9 451.2Q328.9 449.6 329.5 448.4Q330.1 447.2 331.1 446.6Q332.1 446.0 333.5 446.0L333.5 446.0Q335.3 446.0 336.4 447.0Q337.5 448.0 337.7 449.8L337.7 449.8L336.2 449.8Q336.0 448.4 335.3 447.8Q334.7 447.2 333.5 447.2L333.5 447.2Q332.1 447.2 331.3 448.2Q330.4 449.3 330.4 451.3L330.4 451.3L330.4 452.4Q330.4 454.2 331.2 455.3Q332.0 456.4 333.4 456.4L333.4 456.4Q334.6 456.4 335.3 455.8Q336.0 455.3 336.2 453.9L336.2 453.9ZM340.2 449.0L342.3 455.4L344.2 449.0L345.8 449.0L342.4 458.8Q341.6 460.9 339.9 460.9L339.9 460.9L339.6 460.9L339.1 460.8L339.1 459.6L339.5 459.6Q340.2 459.6 340.6 459.3Q341.0 459.0 341.3 458.2L341.3 458.2L341.6 457.4L338.6 449.0L340.2 449.0ZM354.2 453.2L354.2 453.4Q354.2 455.3 353.3 456.5Q352.5 457.6 351.0 457.6L351.0 457.6Q349.4 457.6 348.5 456.5L348.5 456.5L348.4 457.5L347.1 457.5L347.1 445.5L348.5 445.5L348.5 450.0Q349.4 448.9 350.9 448.9Q352.5 448.9 353.4 450.0Q354.2 451.2 354.2 453.2L354.2 453.2ZM352.8 453.2L352.8 453.2Q352.8 451.7 352.2 450.9Q351.6 450.1 350.6 450.1L350.6 450.1Q349.1 450.1 348.5 451.4L348.5 451.4L348.5 455.1Q349.2 456.4 350.6 456.4L350.6 456.4Q351.6 456.4 352.2 455.6Q352.8 454.8 352.8 453.2ZM359.6 457.6L359.6 457.6Q357.8 457.6 356.8 456.5Q355.7 455.4 355.7 453.5L355.7 453.5L355.7 453.2Q355.7 452.0 356.2 451.0Q356.6 450.0 357.5 449.4Q358.4 448.9 359.4 448.9L359.4 448.9Q361.0 448.9 361.9 450.0Q362.9 451.0 362.9 453.1L362.9 453.1L362.9 453.7L357.1 453.7Q357.2 454.9 357.9 455.7Q358.6 456.5 359.6 456.5L359.6 456.5Q360.4 456.5 360.9 456.1Q361.5 455.8 361.9 455.3L361.9 455.3L362.8 456.0Q361.7 457.6 359.6 457.6ZM359.4 450.1L359.4 450.1Q358.5 450.1 357.9 450.7Q357.3 451.3 357.2 452.5L357.2 452.5L361.4 452.5L361.4 452.4Q361.4 451.3 360.8 450.7Q360.3 450.1 359.4 450.1ZM368.6 449.0L368.6 450.3Q368.3 450.3 367.9 450.3L367.9 450.3Q366.5 450.3 366.0 451.5L366.0 451.5L366.0 457.5L364.5 457.5L364.5 449.0L365.9 449.0L366.0 450.0Q366.7 448.9 368.0 448.9L368.0 448.9Q368.4 448.9 368.6 449.0L368.6 449.0ZM377.1 453.2L377.1 453.4Q377.1 455.3 376.2 456.5Q375.3 457.6 373.8 457.6L373.8 457.6Q372.3 457.6 371.4 456.7L371.4 456.7L371.4 460.7L369.9 460.7L369.9 449.0L371.3 449.0L371.3 450.0Q372.2 448.9 373.8 448.9L373.8 448.9Q375.3 448.9 376.2 450.0Q377.1 451.2 377.1 453.2L377.1 453.2ZM375.6 453.2L375.6 453.2Q375.6 451.8 375.0 450.9Q374.4 450.1 373.4 450.1L373.4 450.1Q372.0 450.1 371.4 451.3L371.4 451.3L371.4 455.3Q372.0 456.5 373.4 456.5L373.4 456.5Q374.4 456.5 375.0 455.6Q375.6 454.8 375.6 453.2ZM384.2 457.5L384.1 456.6Q383.3 457.6 381.7 457.6L381.7 457.6Q380.3 457.6 379.6 456.9Q378.9 456.1 378.9 454.5L378.9 454.5L378.9 449.0L380.3 449.0L380.3 454.5Q380.3 456.4 381.9 456.4L381.9 456.4Q383.6 456.4 384.1 455.2L384.1 455.2L384.1 449.0L385.5 449.0L385.5 457.5L384.2 457.5ZM387.7 449.0L389.1 449.0L389.2 450.1Q390.1 448.9 391.7 448.9L391.7 448.9Q394.4 448.9 394.4 451.9L394.4 451.9L394.4 457.5L392.9 457.5L392.9 451.9Q392.9 451.0 392.5 450.5Q392.1 450.1 391.3 450.1L391.3 450.1Q390.5 450.1 390.0 450.5Q389.5 450.9 389.2 451.5L389.2 451.5L389.2 457.5L387.7 457.5L387.7 449.0ZM401.9 457.5L398.9 453.6L398.0 454.5L398.0 457.5L396.6 457.5L396.6 445.5L398.0 445.5L398.0 452.7L398.8 451.8L401.4 449.0L403.2 449.0L399.9 452.6L403.6 457.5L401.9 457.5Z "/><defs><clipPath id="satori_bc-id-0-17-1"><path x="328" y="461" width="132" height="52" d="M354,461 h80 a26,26 0 0 1 26,26 v0 a26,26 0 0 1 -26,26 h-80 a26,26 0 0 1 -26,-26 v0 a26,26 0 0 1 26,-26"/></clipPath></defs><path x="328" y="461" width="132" height="52" fill="#fff25e" d="M354,461 h80 a26,26 0 0 1 26,26 v0 a26,26 0 0 1 -26,26 h-80 a26,26 0 0 1 -26,-26 v0 a26,26 0 0 1 26,-26"/><path width="132" height="52" clip-path="url(#satori_bc-id-0-17-1)" fill="none" stroke="#000000" stroke-width="4" d="M335.615,468.615 A26,26 0 0 1 354,461 h80 a26,26 0 0 1 26,26 v0 a26,26 0 0 1 -26,26 h-80 a26,26 0 0 1 -26,-26 v0 A26,26 0 0 1 335.615,468.615"/><path x="338" y="471" width="32" height="32" fill="#ff7a9b" d="M354,471 h0 a16,16 0 0 1 16,16 v0 a16,16 0 0 1 -16,16 h0 a16,16 0 0 1 -16,-16 v0 a16,16 0 0 1 16,-16"/><path x="378" y="471" width="32" height="32" fill="#00e2f4" d="M394,471 h0 a16,16 0 0 1 16,16 v0 a16,16 0 0 1 -16,16 h0 a16,16 0 0 1 -16,-16 v0 a16,16 0 0 1 16,-16"/><path x="418" y="471" width="32" height="32" fill="#000000" d="M434,471 h0 a16,16 0 0 1 16,16 v0 a16,16 0 0 1 -16,16 h0 a16,16 0 0 1 -16,-16 v0 a16,16 0 0 1 16,-16"/><path fill="#888" d="M52.7 539.4L52.7 539.4Q50.7 538.9 49.9 538.0Q49.0 537.2 49.0 536.1L49.0 536.1Q49.0 534.7 50.1 533.8Q51.1 533.0 52.9 533.0L52.9 533.0Q54.0 533.0 54.9 533.4Q55.9 533.9 56.4 534.7Q56.9 535.5 56.9 536.4L56.9 536.4L55.4 536.4Q55.4 535.4 54.7 534.8Q54.0 534.2 52.9 534.2L52.9 534.2Q51.7 534.2 51.1 534.7Q50.5 535.2 50.5 536.0L50.5 536.0Q50.5 536.7 51.1 537.2Q51.7 537.7 53.1 538.1Q54.5 538.5 55.3 539.0Q56.1 539.4 56.5 540.1Q56.9 540.7 56.9 541.6L56.9 541.6Q56.9 543.0 55.8 543.8Q54.7 544.6 52.9 544.6L52.9 544.6Q51.8 544.6 50.7 544.2Q49.7 543.7 49.2 543.0Q48.6 542.2 48.6 541.2L48.6 541.2L50.1 541.2Q50.1 542.2 50.9 542.8Q51.7 543.4 52.9 543.4L52.9 543.4Q54.1 543.4 54.8 542.9Q55.4 542.4 55.4 541.6Q55.4 540.8 54.8 540.3Q54.2 539.9 52.7 539.4ZM59.2 536.0L61.4 542.4L63.3 536.0L64.9 536.0L61.5 545.8Q60.7 547.9 59.0 547.9L59.0 547.9L58.7 547.9L58.1 547.8L58.1 546.6L58.5 546.6Q59.3 546.6 59.7 546.3Q60.1 546.0 60.4 545.2L60.4 545.2L60.7 544.4L57.7 536.0L59.2 536.0ZM66.2 536.0L67.5 536.0L67.6 537.1Q68.5 535.9 70.1 535.9L70.1 535.9Q72.8 535.9 72.8 538.9L72.8 538.9L72.8 544.5L71.4 544.5L71.4 538.9Q71.4 538.0 70.9 537.5Q70.5 537.1 69.7 537.1L69.7 537.1Q69.0 537.1 68.4 537.5Q67.9 537.9 67.6 538.5L67.6 538.5L67.6 544.5L66.2 544.5L66.2 536.0ZM75.5 534.0L76.9 534.0L76.9 536.0L78.5 536.0L78.5 537.1L76.9 537.1L76.9 542.4Q76.9 542.9 77.2 543.2Q77.4 543.4 77.9 543.4L77.9 543.4Q78.1 543.4 78.6 543.3L78.6 543.3L78.6 544.5Q78.0 544.6 77.5 544.6L77.5 544.6Q76.5 544.6 76.0 544.1Q75.5 543.5 75.5 542.4L75.5 542.4L75.5 537.1L74.0 537.1L74.0 536.0L75.5 536.0L75.5 534.0ZM81.7 532.5L81.7 537.1Q82.6 535.9 84.2 535.9L84.2 535.9Q86.8 535.9 86.9 538.9L86.9 538.9L86.9 544.5L85.4 544.5L85.4 538.9Q85.4 538.0 85.0 537.5Q84.6 537.1 83.7 537.1L83.7 537.1Q83.0 537.1 82.5 537.5Q82.0 537.9 81.7 538.5L81.7 538.5L81.7 544.5L80.2 544.5L80.2 532.5L81.7 532.5ZM94.5 536.0L96.5 542.5L98.1 536.0L99.6 536.0L97.1 544.5L95.9 544.5L93.9 538.1L91.9 544.5L90.7 544.5L88.3 536.0L89.7 536.0L91.4 542.4L93.3 536.0L94.5 536.0ZM107.8 544.5L106.3 544.5Q106.1 544.2 106.1 543.6L106.1 543.6Q105.1 544.6 103.7 544.6L103.7 544.6Q102.4 544.6 101.6 543.9Q100.8 543.2 100.8 542.1L100.8 542.1Q100.8 540.8 101.8 540.1Q102.8 539.4 104.6 539.4L104.6 539.4L106.0 539.4L106.0 538.7Q106.0 537.9 105.6 537.5Q105.1 537.0 104.3 537.0L104.3 537.0Q103.5 537.0 103.0 537.4Q102.4 537.8 102.4 538.4L102.4 538.4L101.0 538.4Q101.0 537.7 101.4 537.2Q101.9 536.6 102.6 536.2Q103.4 535.9 104.3 535.9L104.3 535.9Q105.8 535.9 106.6 536.6Q107.5 537.3 107.5 538.6L107.5 538.6L107.5 542.5Q107.5 543.7 107.8 544.4L107.8 544.4L107.8 544.5ZM103.9 543.4L103.9 543.4Q104.5 543.4 105.2 543.0Q105.8 542.7 106.0 542.1L106.0 542.1L106.0 540.4L104.9 540.4Q102.3 540.4 102.3 541.9L102.3 541.9Q102.3 542.6 102.7 543.0Q103.2 543.4 103.9 543.4ZM110.3 536.0L112.4 542.5L114.5 536.0L116.0 536.0L113.0 544.5L111.9 544.5L108.8 536.0L110.3 536.0ZM120.8 544.6L120.8 544.6Q119.1 544.6 118.0 543.5Q116.9 542.4 116.9 540.5L116.9 540.5L116.9 540.2Q116.9 539.0 117.4 538.0Q117.9 537.0 118.7 536.4Q119.6 535.9 120.6 535.9L120.6 535.9Q122.3 535.9 123.2 537.0Q124.1 538.0 124.1 540.1L124.1 540.1L124.1 540.7L118.4 540.7Q118.4 541.9 119.1 542.7Q119.8 543.5 120.9 543.5L120.9 543.5Q121.6 543.5 122.2 543.1Q122.7 542.8 123.1 542.3L123.1 542.3L124.0 543.0Q122.9 544.6 120.8 544.6ZM120.6 537.1L120.6 537.1Q119.7 537.1 119.1 537.7Q118.5 538.3 118.4 539.5L118.4 539.5L122.6 539.5L122.6 539.4Q122.6 538.3 122.0 537.7Q121.5 537.1 120.6 537.1Z "/><defs><clipPath id="satori_bc-id-0-18-1"><path x="48" y="548" width="132" height="52" d="M74,548 h80 a26,26 0 0 1 26,26 v0 a26,26 0 0 1 -26,26 h-80 a26,26 0 0 1 -26,-26 v0 a26,26 0 0 1 26,-26"/></clipPath></defs><path x="48" y="548" width="132" height="52" fill="#2b213a" d="M74,548 h80 a26,26 0 0 1 26,26 v0 a26,26 0 0 1 -26,26 h-80 a26,26 0 0 1 -26,-26 v0 a26,26 0 0 1 26,-26"/><path width="132" height="52" clip-path="url(#satori_bc-id-0-18-1)" fill="none" stroke="#f92aad" stroke-width="4" d="M55.614999999999995,555.615 A26,26 0 0 1 74,548 h80 a26,26 0 0 1 26,26 v0 a26,26 0 0 1 -26,26 h-80 a26,26 0 0 1 -26,-26 v0 A26,26 0 0 1 55.614999999999995,555.615"/><path x="58" y="558" width="32" height="32" fill="#fd25e9" d="M74,558 h0 a16,16 0 0 1 16,16 v0 a16,16 0 0 1 -16,16 h0 a16,16 0 0 1 -16,-16 v0 a16,16 0 0 1 16,-16"/><path x="98" y="558" width="32" height="32" fill="#03edf9" d="M114,558 h0 a16,16 0 0 1 16,16 v0 a16,16 0 0 1 -16,16 h0 a16,16 0 0 1 -16,-16 v0 a16,16 0 0 1 16,-16"/><path x="138" y="558" width="32" height="32" fill="#f92aad" d="M154,558 h0 a16,16 0 0 1 16,16 v0 a16,16 0 0 1 -16,16 h0 a16,16 0 0 1 -16,-16 v0 a16,16 0 0 1 16,-16"/><path fill="#888" d="M196.7 544.5L195.6 541.5L190.8 541.5L189.8 544.5L188.2 544.5L192.6 533.1L193.9 533.1L198.2 544.5L196.7 544.5ZM193.2 535.0L191.3 540.3L195.2 540.3L193.2 535.0ZM206.7 540.2L206.7 540.4Q206.7 542.3 205.8 543.5Q204.9 544.6 203.4 544.6L203.4 544.6Q201.8 544.6 200.9 543.5L200.9 543.5L200.9 544.5L199.5 544.5L199.5 532.5L201.0 532.5L201.0 537.0Q201.9 535.9 203.4 535.9Q204.9 535.9 205.8 537.0Q206.7 538.2 206.7 540.2L206.7 540.2ZM205.2 540.2L205.2 540.2Q205.2 538.7 204.7 537.9Q204.1 537.1 203.0 537.1L203.0 537.1Q201.6 537.1 201.0 538.4L201.0 538.4L201.0 542.1Q201.6 543.4 203.0 543.4L203.0 543.4Q204.1 543.4 204.7 542.6Q205.2 541.8 205.2 540.2ZM209.1 536.0L211.2 542.4L213.2 536.0L214.7 536.0L211.3 545.8Q210.5 547.9 208.8 547.9L208.8 547.9L208.5 547.9L208.0 547.8L208.0 546.6L208.4 546.6Q209.1 546.6 209.5 546.3Q209.9 546.0 210.2 545.2L210.2 545.2L210.5 544.4L207.5 536.0L209.1 536.0ZM220.9 542.2L220.9 542.2Q220.9 541.7 220.5 541.3Q220.0 541.0 218.9 540.8Q217.8 540.5 217.2 540.2Q216.5 539.9 216.2 539.4Q215.9 539.0 215.9 538.4L215.9 538.4Q215.9 537.3 216.8 536.6Q217.7 535.9 219.1 535.9L219.1 535.9Q220.5 535.9 221.4 536.6Q222.3 537.4 222.3 538.5L222.3 538.5L220.8 538.5Q220.8 537.9 220.3 537.5Q219.8 537.1 219.1 537.1L219.1 537.1Q218.3 537.1 217.8 537.4Q217.4 537.7 217.4 538.3L217.4 538.3Q217.4 538.8 217.8 539.1Q218.2 539.4 219.3 539.6Q220.4 539.8 221.0 540.2Q221.7 540.5 222.0 541.0Q222.4 541.5 222.4 542.1L222.4 542.1Q222.4 543.3 221.5 544.0Q220.5 544.6 219.1 544.6L219.1 544.6Q218.1 544.6 217.3 544.3Q216.5 543.9 216.1 543.3Q215.6 542.6 215.6 541.9L215.6 541.9L217.1 541.9Q217.1 542.6 217.7 543.0Q218.2 543.5 219.1 543.5L219.1 543.5Q219.9 543.5 220.4 543.1Q220.9 542.8 220.9 542.2ZM229.2 542.2L229.2 542.2Q229.2 541.7 228.7 541.3Q228.3 541.0 227.2 540.8Q226.1 540.5 225.4 540.2Q224.8 539.9 224.5 539.4Q224.2 539.0 224.2 538.4L224.2 538.4Q224.2 537.3 225.1 536.6Q225.9 535.9 227.3 535.9L227.3 535.9Q228.7 535.9 229.6 536.6Q230.5 537.4 230.5 538.5L230.5 538.5L229.1 538.5Q229.1 537.9 228.6 537.5Q228.1 537.1 227.3 537.1L227.3 537.1Q226.5 537.1 226.1 537.4Q225.6 537.7 225.6 538.3L225.6 538.3Q225.6 538.8 226.0 539.1Q226.5 539.4 227.5 539.6Q228.6 539.8 229.3 540.2Q230.0 540.5 230.3 541.0Q230.6 541.5 230.6 542.1L230.6 542.1Q230.6 543.3 229.7 544.0Q228.8 544.6 227.4 544.6L227.4 544.6Q226.3 544.6 225.6 544.3Q224.8 543.9 224.3 543.3Q223.9 542.6 223.9 541.9L223.9 541.9L225.3 541.9Q225.4 542.6 225.9 543.0Q226.5 543.5 227.4 543.5L227.4 543.5Q228.2 543.5 228.7 543.1Q229.2 542.8 229.2 542.2Z "/><defs><clipPath id="satori_bc-id-0-19-1"><path x="188" y="548" width="132" height="52" d="M214,548 h80 a26,26 0 0 1 26,26 v0 a26,26 0 0 1 -26,26 h-80 a26,26 0 0 1 -26,-26 v0 a26,26 0 0 1 26,-26"/></clipPath></defs><path x="188" y="548" width="132" height="52" fill="#22092C" d="M214,548 h80 a26,26 0 0 1 26,26 v0 a26,26 0 0 1 -26,26 h-80 a26,26 0 0 1 -26,-26 v0 a26,26 0 0 1 26,-26"/><path width="132" height="52" clip-path="url(#satori_bc-id-0-19-1)" fill="none" stroke="#efc4d8" stroke-width="4" d="M195.615,555.615 A26,26 0 0 1 214,548 h80 a26,26 0 0 1 26,26 v0 a26,26 0 0 1 -26,26 h-80 a26,26 0 0 1 -26,-26 v0 A26,26 0 0 1 195.615,555.615"/><path x="198" y="558" width="32" height="32" fill="#F05941" d="M214,558 h0 a16,16 0 0 1 16,16 v0 a16,16 0 0 1 -16,16 h0 a16,16 0 0 1 -16,-16 v0 a16,16 0 0 1 16,-16"/><path x="238" y="558" width="32" height="32" fill="#BE3144" d="M254,558 h0 a16,16 0 0 1 16,16 v0 a16,16 0 0 1 -16,16 h0 a16,16 0 0 1 -16,-16 v0 a16,16 0 0 1 16,-16"/><path x="278" y="558" width="32" height="32" fill="#efc4d8" d="M294,558 h0 a16,16 0 0 1 16,16 v0 a16,16 0 0 1 -16,16 h0 a16,16 0 0 1 -16,-16 v0 a16,16 0 0 1 16,-16"/><path fill="#888" d="M333.3 544.5L329.3 544.5L329.3 533.1L333.0 533.1Q334.9 533.1 335.8 533.9Q336.8 534.6 336.8 536.1L336.8 536.1Q336.8 536.9 336.3 537.5Q335.9 538.2 335.1 538.5L335.1 538.5Q336.0 538.8 336.5 539.5Q337.1 540.2 337.1 541.2L337.1 541.2Q337.1 542.7 336.1 543.6Q335.1 544.5 333.3 544.5L333.3 544.5ZM333.3 539.2L330.8 539.2L330.8 543.3L333.3 543.3Q334.3 543.3 334.9 542.7Q335.6 542.2 335.6 541.2L335.6 541.2Q335.6 539.2 333.3 539.2L333.3 539.2ZM330.8 534.3L330.8 538.0L333.1 538.0Q334.1 538.0 334.7 537.5Q335.3 537.0 335.3 536.1L335.3 536.1Q335.3 535.2 334.7 534.8Q334.2 534.3 333.0 534.3L333.0 534.3L330.8 534.3ZM343.1 536.0L343.1 537.3Q342.8 537.3 342.4 537.3L342.4 537.3Q341.0 537.3 340.5 538.5L340.5 538.5L340.5 544.5L339.1 544.5L339.1 536.0L340.5 536.0L340.5 537.0Q341.2 535.9 342.5 535.9L342.5 535.9Q342.9 535.9 343.1 536.0L343.1 536.0ZM347.8 544.6L347.8 544.6Q346.1 544.6 345.0 543.5Q344.0 542.4 344.0 540.5L344.0 540.5L344.0 540.2Q344.0 539.0 344.4 538.0Q344.9 537.0 345.8 536.4Q346.6 535.9 347.6 535.9L347.6 535.9Q349.3 535.9 350.2 537.0Q351.1 538.0 351.1 540.1L351.1 540.1L351.1 540.7L345.4 540.7Q345.4 541.9 346.1 542.7Q346.8 543.5 347.9 543.5L347.9 543.5Q348.7 543.5 349.2 543.1Q349.7 542.8 350.1 542.3L350.1 542.3L351.0 543.0Q350.0 544.6 347.8 544.6ZM347.6 537.1L347.6 537.1Q346.8 537.1 346.2 537.7Q345.6 538.3 345.4 539.5L345.4 539.5L349.7 539.5L349.7 539.4Q349.6 538.3 349.1 537.7Q348.6 537.1 347.6 537.1ZM356.3 544.6L356.3 544.6Q354.6 544.6 353.5 543.5Q352.4 542.4 352.4 540.5L352.4 540.5L352.4 540.2Q352.4 539.0 352.9 538.0Q353.4 537.0 354.3 536.4Q355.1 535.9 356.1 535.9L356.1 535.9Q357.8 535.9 358.7 537.0Q359.6 538.0 359.6 540.1L359.6 540.1L359.6 540.7L353.9 540.7Q353.9 541.9 354.6 542.7Q355.3 543.5 356.4 543.5L356.4 543.5Q357.1 543.5 357.7 543.1Q358.2 542.8 358.6 542.3L358.6 542.3L359.5 543.0Q358.4 544.6 356.3 544.6ZM356.1 537.1L356.1 537.1Q355.3 537.1 354.7 537.7Q354.1 538.3 353.9 539.5L353.9 539.5L358.2 539.5L358.2 539.4Q358.1 538.3 357.6 537.7Q357.0 537.1 356.1 537.1ZM367.3 537.1L362.6 543.3L367.6 543.3L367.6 544.5L360.9 544.5L360.9 543.4L365.5 537.2L360.9 537.2L360.9 536.0L367.3 536.0L367.3 537.1ZM372.6 544.6L372.6 544.6Q370.9 544.6 369.8 543.5Q368.7 542.4 368.7 540.5L368.7 540.5L368.7 540.2Q368.7 539.0 369.2 538.0Q369.7 537.0 370.5 536.4Q371.4 535.9 372.4 535.9L372.4 535.9Q374.1 535.9 375.0 537.0Q375.9 538.0 375.9 540.1L375.9 540.1L375.9 540.7L370.2 540.7Q370.2 541.9 370.9 542.7Q371.6 543.5 372.7 543.5L372.7 543.5Q373.4 543.5 374.0 543.1Q374.5 542.8 374.9 542.3L374.9 542.3L375.8 543.0Q374.7 544.6 372.6 544.6ZM372.4 537.1L372.4 537.1Q371.5 537.1 370.9 537.7Q370.3 538.3 370.2 539.5L370.2 539.5L374.4 539.5L374.4 539.4Q374.4 538.3 373.8 537.7Q373.3 537.1 372.4 537.1Z "/><defs><clipPath id="satori_bc-id-0-20-1"><path x="328" y="548" width="132" height="52" d="M354,548 h80 a26,26 0 0 1 26,26 v0 a26,26 0 0 1 -26,26 h-80 a26,26 0 0 1 -26,-26 v0 a26,26 0 0 1 26,-26"/></clipPath></defs><path x="328" y="548" width="132" height="52" fill="#ECF4D6" d="M354,548 h80 a26,26 0 0 1 26,26 v0 a26,26 0 0 1 -26,26 h-80 a26,26 0 0 1 -26,-26 v0 a26,26 0 0 1 26,-26"/><path width="132" height="52" clip-path="url(#satori_bc-id-0-20-1)" fill="none" stroke="#265073" stroke-width="4" d="M335.615,555.615 A26,26 0 0 1 354,548 h80 a26,26 0 0 1 26,26 v0 a26,26 0 0 1 -26,26 h-80 a26,26 0 0 1 -26,-26 v0 A26,26 0 0 1 335.615,555.615"/><path x="338" y="558" width="32" height="32" fill="#2D9596" d="M354,558 h0 a16,16 0 0 1 16,16 v0 a16,16 0 0 1 -16,16 h0 a16,16 0 0 1 -16,-16 v0 a16,16 0 0 1 16,-16"/><path x="378" y="558" width="32" height="32" fill="#9AD0C2" d="M394,558 h0 a16,16 0 0 1 16,16 v0 a16,16 0 0 1 -16,16 h0 a16,16 0 0 1 -16,-16 v0 a16,16 0 0 1 16,-16"/><path x="418" y="558" width="32" height="32" fill="#265073" d="M434,558 h0 a16,16 0 0 1 16,16 v0 a16,16 0 0 1 -16,16 h0 a16,16 0 0 1 -16,-16 v0 a16,16 0 0 1 16,-16"/></svg>